<svg xmlns="http://www.w3.org/2000/svg" viewBox="0 0 1054 252"><path d="M367.4 55.64c21.91 0 36.71 11.36 45.03 11.36 8.92 0 10.14-7.3 10.75-16.23h1.01l15.82 76.06H439c-11.76-32.25-34.68-69.78-71.6-69.78-22.51 0-36.1 33.06-36.1 74.03s13.59 73.83 36.1 73.83c36.92 0 59.84-37.52 71.6-69.78h1.01l-15.82 76.06h-1.01c-.61-8.92-1.83-16.23-10.75-16.23-8.32 0-23.12 11.36-45.03 11.36-48.68 0-86.21-29.21-86.21-75.25.01-46.02 37.53-75.43 86.21-75.43zM513.24 135.76h-30.43l-1.62 4.26c-15.42 41.38 10.75 61.87 31.64 62.88v.81h-80.12v-.81c11.76-1.01 29.21-16.43 41.58-49.09l22.11-58.62-13.39-32.66c20.89-1.42 32.45-6.9 38.34-25.76h.61l62.27 151.92c3.85 9.53 8.92 12.58 19.27 14.2v.81h-82.76v-.81c14.81-1.42 18.66-3.65 12.58-18.46l-20.08-48.67zm-.82-2.03l-15.01-36.51-13.79 36.51h28.8zM732.09 127.65c0-35.9-33.27-65.92-53.75-67.54v-.81h79.11v.81c-16.43 1.62-23.73 31.64-23.73 67.54v8.72c0 39.55-16.43 70.38-63.28 70.38-51.52 0-64.7-29.82-64.7-60.24v-38.94c0-15.62-1.22-28.6-1.83-33.47-1.22-9.74-5.88-11.97-17.85-14v-.81h81.13v.81c-11.36 2.03-16.84 4.26-16.84 19.47v64.5c0 34.48 13.59 54.77 37.32 54.77 26.77 0 44.42-21.7 44.42-62.47v-8.72zM859.87 67c8.92 0 10.14-7.3 10.75-16.23h1.01l9.74 76.06h-1.01c-12.98-33.27-27.99-69.78-60.04-69.78-15.21 0-27.58 7.71-27.58 21.09 0 15.82 11.76 22.92 35.09 28.4l9.53 2.23c32.05 7.5 44.42 26.17 44.42 48.48 0 30.63-31.84 49.09-58.82 49.09-26.37 0-32.86-14.6-48.28-14.6-8.92 0-9.53 7.3-10.14 16.23h-1.01l-4.06-84.18h1.01c10.14 33.26 21.91 81.13 62.68 81.13 14.4 0 29.61-7.1 29.61-21.91 0-12.98-8.11-21.09-35.09-27.38l-9.53-2.23c-22.92-5.27-43.41-21.7-43.41-49.49 0-31.24 30.63-48.27 55.58-48.27 22.92 0 31.24 11.36 39.55 11.36zM955.61 135.76h-30.42l-1.62 4.26c-15.42 41.38 10.75 61.87 31.64 62.88v.81h-80.12v-.81c11.76-1.01 29.21-16.43 41.58-49.09l22.11-58.62-13.39-32.66c20.89-1.42 32.45-6.9 38.33-25.76h.61l62.27 151.92c3.85 9.53 8.92 12.58 19.27 14.2v.81h-82.76v-.81c14.81-1.42 18.66-3.65 12.58-18.46l-20.08-48.67zm-.81-2.03l-15.01-36.51L926 133.73h28.8z"/></svg>