<svg id="Layer_1" xmlns="http://www.w3.org/2000/svg" xmlns:xlink="http://www.w3.org/1999/xlink" viewBox="0 0 1928 1284"><style>.st1{fill:#ff8f51}.st2{fill:#c13553}.st3{fill:#4c335a}.st4{fill:#45d4d1}</style><defs><path id="SVGID_1_" d="M.48.12h1927.21V1282.6H.48z"/></defs><clipPath id="SVGID_2_"><use xlink:href="#SVGID_1_" overflow="visible"/></clipPath><g clip-path="url(#SVGID_2_)"><path class="st1" d="M1853.78 1154.65l-74.13-128.32h-.22l-74.14-128.32-74.13 128.32h.23l-74.14 128.32h-.22l-73.91 127.94H1631.39l73.9-127.94 73.91 127.94H1927.47l-73.91-127.94zM1853.78 384.7l74.13-128.32h-.22l-74.13-128.32-74.13 128.32h.22zM1334.63.12l-73.9 127.94h-.23l-74.13 128.32h.22l-74.13 128.32h-.22l-74.14 128.33h.23L964.2 641.35l-74.14-128.32h-.22L815.71 384.7h.22L741.8 256.38h-.22l-74.14-128.32h.23L593.76.12H445.5l73.9 127.94h-.22l74.13 128.32h.23l74.13 128.32h-.23l74.14 128.33h.22l74.13 128.32h-.22l74.13 128.33h148.26l74.14-128.33h.22l74.13-128.32h-.22l74.13-128.33h.23l74.13-128.32h-.23l74.14-128.32h.22L1482.9.12h-147.82zM371.14 641.35H519.4l-74.13-128.32z"/><g><path class="st2" d="M1186.37 1026.33l74.13-128.32h.23l74.13-128.33h-.23l74.14-128.33h.22l74.13-128.32h-.22l74.13-128.33h.22l74.14-128.32h-.23l74.13-128.32h.23L1779.43.12H1631.16l-73.91 127.94h-.22l-74.13 128.32h.22l-74.13 128.32h-.22l-74.14 128.33h.23l-74.13 128.32h-.23l-74.13 128.33h.22l-74.13 128.33h-.22l-74.14 128.32h.23l-74.13 128.32-74.14-128.32h-.22l-74.13-128.32h.22L741.8 769.68h-.22l-74.14-128.33h.23l-74.13-128.32h-.23L519.18 384.7l-74.13 128.33-74.13-128.33-74.14 128.33h.23l-74.13 128.32h-.23l-74.13 128.33h.22L74.61 898.01h-.22L.26 1026.33h.22l74.13 128.32 74.13-128.32h-.22l74.13-128.32h.23l74.13-128.33h-.23l74.14-128.33h.22l74.13-128.32 74.13 128.32h-.22l74.13 128.33h.23l74.13 128.33h-.23l74.14 128.32h.22l74.13 128.32h-.22l73.91 127.94H1038.33l73.91-127.94h.22l74.13-128.32z"/><path class="st2" d="M667.67 1154.65l-74.13-128.32-74.14 128.32h-.22l-73.91 127.94h296.08l-73.91-127.94zM964.2 898.01l74.13-128.33H890.06zM1927.69 769.68l-74.13-128.33h.22l-74.13-128.32h-.22l-74.14-128.33-74.13 128.33h.23l-74.14 128.32h-.22l-74.13 128.33h.22l-74.13 128.33h-.22l-74.14 128.32h.23l-74.13 128.32h-.23l-73.91 127.94H1334.86l73.91-127.94h.22l74.13-128.32h-.22l74.13-128.32h.22l74.14-128.33h-.23l74.13-128.33 74.14 128.33h.22l74.13 128.33 74.13-128.33zM667.44 128.06l74.14 128.32h.22l74.13 128.32h-.22l74.13 128.33h.22l74.14 128.32 74.13-128.32h-.23l74.14-128.33h.22l74.13-128.32h-.22l74.13-128.32h.23L1334.63.12h-148.26l-73.91 127.94L1038.55.12H890.29l73.91 127.94h-.23l74.13 128.32h.23L964.2 384.7l-74.14-128.32h-.22l-74.13-128.32h.22L742.02.12H593.76l73.91 127.94zM1927.69.12h-147.82l73.91 127.94zM222.65 1154.65l-73.91 127.94H297.01l73.91-127.94h.22l-74.13-128.32-74.13 128.32zM519.18 898.01h.22l-74.13-128.33-74.13 128.33h-.22l-74.14 128.32H445.05zM445.27 256.38L371.14 384.7H519.4zM222.88 384.7l-74.14-128.32h-.22l74.13-128.32h.23L296.78.12H148.52L74.61 128.06h-.22L.26 256.38h.22L74.61 384.7h-.22l74.13 128.33h148.26L222.65 384.7z"/></g><g><path class="st3" d="M741.8 1282.59h147.82l-73.91-127.94zM964.2 1154.65l74.13-128.32H890.06z"/><path class="st3" d="M741.8 1026.33h-.22l-74.14-128.32h.23l-74.13-128.33h-.23l-74.13-128.33H370.92l-74.14 128.33h.23l-74.13 128.33h-.23l-74.13 128.32h.22l-74.13 128.32h-.22L.48 1282.59h148.26l73.91-127.94h.23l74.13-128.32h-.23l74.14-128.32h.22l74.13-128.33 74.13 128.33h-.22l-74.13 128.32H297.01l74.13 128.32h-.22l-73.91 127.94h148.26l73.91-127.94h.22l74.14-128.32 74.13 128.32h148.26zM1705.29 641.35l-74.13 128.33H1779.43zM964.2 384.7l74.13-128.32H890.06zM815.71 128.06l74.13 128.32 74.13-128.32h.23L890.29.12H742.02l73.91 127.94zM1853.56 128.06H1705.29l74.14 128.32z"/><path class="st3" d="M1557.25 128.06L1631.16.12H1482.9l-73.91 127.94h-.22l-74.14 128.32h.23l-74.13 128.32h-.23l-74.13 128.33h.22l-74.13 128.32h-.22l-74.14 128.33h.23L964.2 898.01l-74.14-128.33h-.22l-74.13-128.33h.22L741.8 513.03h-.22L667.44 384.7h.23l-74.13-128.32h-.23l-74.13-128.32h.22L445.5.12h-.45l-73.91 127.94h-.22l-74.14 128.32h.23L222.88 384.7h-.23l74.13 128.33 74.14-128.33 74.13 128.33 74.13-128.33H371.14l74.13-128.32L519.4 384.7h-.22l74.13 128.33h.23l74.13 128.32h-.23l74.14 128.33h.22l74.13 128.33h-.22l74.13 128.32 74.13-128.32 74.13 128.32 74.14-128.32h.22l74.13-128.33h-.22l74.13-128.33h.23l74.13-128.32h-.23l74.14-128.33h.22l74.13-128.32h-.22l74.13-128.32zM74.61 898.01l74.13-128.33h-.22l74.13-128.33h.23l-74.14-128.32-74.13 128.32h-.22L.26 769.68h.22l-74.13 128.33h-.23L.26 1026.33l74.13-128.32zM2002.05 898.01l-74.14-128.33L1853.78 898l-74.13-128.32-74.13 128.33-74.13-128.33-74.14 128.33h148.04l74.14 128.32h.22l74.13 128.32 74.13-128.32h-.22l74.13-128.32z"/></g><g><path class="st4" d="M667.44 1154.65l73.91 127.94h.45l73.91-127.94H667.67zM1631.39 1282.59h147.81l-73.91-127.94zM593.31 1026.72l.23-.39v-.39l-.23.39zM1631.16 1026.33l74.13-128.32h-148.26l-74.13 128.32h.22l-74.13 128.32h-.22l-73.91 127.94h148.26l73.91-127.94h.22l74.14-128.32zM1927.69 1026.33h.22v-.39zM889.84 1026.33h148.26l-74.13-128.32zM593.31 770.07l.23-.39v-.39l-.23.39zM1631.39 769.68l74.13 128.33 74.13-128.33h-.22zM1927.91 769.29l-.22.39h.22zM593.31 513.42l.23-.39v-.39l-.23.39zM593.31 256.77l.23-.39v-.39l-.23.39zM1927.69 256.38h.22v-.39zM889.84 256.38h148.26l-74.13-128.32zM1186.37.12h-147.82l73.91 127.94zM-73.65 1154.65h-.23L.03 1282.59h.45l73.91-127.94h.22L.48 1026.33zM148.74 513.03l74.14 128.32 74.13-128.32h-.23zM74.39 384.7h.22L.48 256.38-73.65 384.7h-.23L.26 513.03h.22l-74.13 128.32h-.23L.26 769.68l74.13-128.33h.22l74.13-128.32h-.22zM74.39 128.06h.22L148.52.12H.26l-73.91 127.94h-.23L.26 256.38zM296.78.12l-73.9 127.94h-.23l-74.13 128.32h.22l74.14 128.32 74.13-128.32h-.23l74.14-128.32h.22L445.05.12H297.23zM1853.78 1154.65h-.22l73.91 127.94h.44l73.91-127.94h.23l-74.14-128.32z"/><path class="st4" d="M2002.05 384.7l-74.14-128.32-74.13 128.32-74.13-128.32h-.22l-74.14-128.32-74.13 128.32h.23l-74.14 128.32h-.22l-74.13 128.33h.22l-74.13 128.32h-.22l-74.14 128.33h.23l-74.13 128.33h-.23l-74.13 128.32h.22l-74.13 128.32h-.22l-73.91 127.94h148.26l73.91-127.94h.23l74.13-128.32h-.23l74.14-128.32h.22l74.13-128.33h-.22l74.13-128.33h.22l74.14-128.32h-.23l74.13-128.33 74.14 128.33h.22l74.13 128.32h-.22l74.13 128.33 74.13-128.33h.23l-74.14-128.32v-.39l-.22.39 74.13-128.33z"/><path class="st4" d="M2002.05 128.06L1928.14.12h-.45l-73.91 127.93L1779.87.12h-.44l-73.91 127.94h148.04l74.13 128.32 74.13-128.32z"/></g></g></svg>