<svg id="Layer_1" xmlns="http://www.w3.org/2000/svg" viewBox="0 0 1054 252"><style>.st0{fill:#fff}</style><path class="st0" d="M121.65 12.48C58.96 12.48 8.13 63.3 8.13 126c0 62.69 50.83 113.52 113.52 113.52S235.18 188.7 235.18 126c0-62.7-50.83-113.52-113.53-113.52M231.92 126c0 26.97-9.69 51.66-25.77 70.82 4.01-4.92 7.73-10.39 11.12-16.29 10.63-18.54 11.92-39.18 5.49-54.09.96-5.62 1.42-11.4 1.24-17.31-.86-28.69-18.39-57.28-41.52-75.1 29.79 19.74 49.44 53.56 49.44 91.97M125.36 19.06c37.07-.51 69.49 22 84.32 53.28 5.66 11.95 8.86 25.51 8.9 39.06.01 2.44-.11 4.84-.29 7.22-4.26-5.69-10.07-9.87-17.28-11.78-4.92-1.3-10.06-1.43-15.23-.58-18.05-22.38-47.64-37.05-78.76-37.05-32.8 0-60.82 15.38-75.8 39.69.72-48.43 39.12-89.09 94.14-89.84m4.11 182.41c-1.46.06-2.93.11-4.41.11-47.58 0-87.75-36.41-93.23-80.91 12.55-23.54 39.55-37.28 70.96-37.28 22.48 0 48 11.4 66.25 28.84-16.19 8.77-30.79 25.37-37.94 43.34-6.88 17.32-7.4 33.76-1.63 45.9m9.02-37.98c7.1-17.62 23.51-33.66 40.67-39.95 8.89 11.75 14.45 25.26 14.45 39.4 0 3.81-.28 7.49-.78 11.04-14.86 14.9-35.02 24.71-57.44 27.04-3.87-10.08-2.63-23.29 3.1-37.53m53.2 16.67c-3.82 16.64-13.17 30.05-25.9 39.44-3.36.1-6.71-.26-10.01-1.17-9.13-2.51-15.35-7.51-18.93-14.21 20.86-2.58 39.91-11.22 54.84-24.06m10.66-10.7c8.19-9.59 14.4-20.72 18.04-32.85 6.12 12.44 4.58 30.33-5.21 47.03-10 17.06-25.06 30.56-40.72 34.68 14.37-11.96 24.5-28.94 27.89-48.86m-7.13-48.7c2.37.09 4.71.41 6.98 1.01 6 1.59 10.79 4.72 14.33 8.92-2.43 11.21-6.99 21.53-13.21 30.64.16-2.19.27-4.39.27-6.64.01-12.05-3.03-23.52-8.37-33.93m-71.38 84.29c2.49 0 4.96-.12 7.41-.29 4.45 7.23 11.47 12.57 21.06 15.12 3.75 1 7.44 1.44 11.06 1.42-13.12 8.88-29.47 13.72-46.94 13.72-50.54 0-91.67-42.24-92.1-82.37-.08-7.29.91-14.11 2.78-20.41 11.17 41.52 50.16 72.81 96.73 72.81m48.02 15.32c8.56-1.84 16.6-6.36 23.96-12.77a110.035 110.035 0 0 1-49.69 25.91c9.42-2.85 18.11-7.31 25.73-13.14M77.89 24.78C46.05 40.61 23.9 78.23 23.9 107.93c0 4.62.36 9.16 1.02 13.62-3.47 8.96-5.36 18.78-5.36 29.24 0 15.38 5.55 29.87 14.73 42.45-14.35-18.62-22.9-41.92-22.9-67.24 0-45.35 27.38-84.28 66.5-101.22"/><path class="st0" d="M121.65 12.48C58.96 12.48 8.13 63.3 8.13 126c0 62.69 50.83 113.52 113.52 113.52S235.18 188.7 235.18 126c0-62.7-50.83-113.52-113.53-113.52zM231.92 126c0 26.97-9.69 51.66-25.77 70.82 4.01-4.92 7.73-10.39 11.12-16.29 10.63-18.54 11.92-39.18 5.49-54.09.96-5.62 1.42-11.4 1.24-17.31-.86-28.69-18.39-57.28-41.52-75.1 29.79 19.74 49.44 53.56 49.44 91.97zM125.36 19.06c37.07-.51 69.49 22 84.32 53.28 5.66 11.95 8.86 25.51 8.9 39.06.01 2.44-.11 4.84-.29 7.22-4.26-5.69-10.07-9.87-17.28-11.78-4.92-1.3-10.06-1.43-15.23-.58-18.05-22.38-47.64-37.05-78.76-37.05-32.8 0-60.82 15.38-75.8 39.69.72-48.43 39.12-89.09 94.14-89.84zm4.11 182.41c-1.46.06-2.93.11-4.41.11-47.58 0-87.75-36.41-93.23-80.91 12.55-23.54 39.55-37.28 70.96-37.28 22.48 0 48 11.4 66.25 28.84-16.19 8.77-30.79 25.37-37.94 43.34-6.88 17.32-7.4 33.76-1.63 45.9zm9.02-37.98c7.1-17.62 23.51-33.66 40.67-39.95 8.89 11.75 14.45 25.26 14.45 39.4 0 3.81-.28 7.49-.78 11.04-14.86 14.9-35.02 24.71-57.44 27.04-3.87-10.08-2.63-23.29 3.1-37.53zm53.2 16.67c-3.82 16.64-13.17 30.05-25.9 39.44-3.36.1-6.71-.26-10.01-1.17-9.13-2.51-15.35-7.51-18.93-14.21 20.86-2.58 39.91-11.22 54.84-24.06zm10.66-10.7c8.19-9.59 14.4-20.72 18.04-32.85 6.12 12.44 4.58 30.33-5.21 47.03-10 17.06-25.06 30.56-40.72 34.68 14.37-11.96 24.5-28.94 27.89-48.86zm-7.13-48.7c2.37.09 4.71.41 6.98 1.01 6 1.59 10.79 4.72 14.33 8.92-2.43 11.21-6.99 21.53-13.21 30.64.16-2.19.27-4.39.27-6.64.01-12.05-3.03-23.52-8.37-33.93zm-71.38 84.29c2.49 0 4.96-.12 7.41-.29 4.45 7.23 11.47 12.57 21.06 15.12 3.75 1 7.44 1.44 11.06 1.42-13.12 8.88-29.47 13.72-46.94 13.72-50.54 0-91.67-42.24-92.1-82.37-.08-7.29.91-14.11 2.78-20.41 11.17 41.52 50.16 72.81 96.73 72.81zm48.02 15.32c8.56-1.84 16.6-6.36 23.96-12.77a110.035 110.035 0 0 1-49.69 25.91c9.42-2.85 18.11-7.31 25.73-13.14zM77.89 24.78C46.05 40.61 23.9 78.23 23.9 107.93c0 4.62.36 9.16 1.02 13.62-3.47 8.96-5.36 18.78-5.36 29.24 0 15.38 5.55 29.87 14.73 42.45-14.35-18.62-22.9-41.92-22.9-67.24 0-45.35 27.38-84.28 66.5-101.22z"/><g><path class="st0" d="M367.4 55.64c21.91 0 36.71 11.36 45.03 11.36 8.92 0 10.14-7.3 10.75-16.23h1.01l15.82 76.06H439c-11.76-32.25-34.68-69.78-71.6-69.78-22.51 0-36.1 33.06-36.1 74.03s13.59 73.83 36.1 73.83c36.92 0 59.84-37.52 71.6-69.78h1.01l-15.82 76.06h-1.01c-.61-8.92-1.83-16.23-10.75-16.23-8.32 0-23.12 11.36-45.03 11.36-48.68 0-86.21-29.21-86.21-75.25.01-46.02 37.53-75.43 86.21-75.43zM513.24 135.76h-30.43l-1.62 4.26c-15.42 41.38 10.75 61.87 31.64 62.88v.81h-80.12v-.81c11.76-1.01 29.21-16.43 41.58-49.09l22.11-58.62-13.39-32.66c20.89-1.42 32.45-6.9 38.34-25.76h.61l62.27 151.92c3.85 9.53 8.92 12.58 19.27 14.2v.81h-82.76v-.81c14.81-1.42 18.66-3.65 12.58-18.46l-20.08-48.67zm-.82-2.03l-15.01-36.51-13.79 36.51h28.8zM732.09 127.65c0-35.9-33.27-65.92-53.75-67.54v-.81h79.11v.81c-16.43 1.62-23.73 31.64-23.73 67.54v8.72c0 39.55-16.43 70.38-63.28 70.38-51.52 0-64.7-29.82-64.7-60.24v-38.94c0-15.62-1.22-28.6-1.83-33.47-1.22-9.74-5.88-11.97-17.85-14v-.81h81.13v.81c-11.36 2.03-16.84 4.26-16.84 19.47v64.5c0 34.48 13.59 54.77 37.32 54.77 26.77 0 44.42-21.7 44.42-62.47v-8.72zM859.87 67c8.92 0 10.14-7.3 10.75-16.23h1.01l9.74 76.06h-1.01c-12.98-33.27-27.99-69.78-60.04-69.78-15.21 0-27.58 7.71-27.58 21.09 0 15.82 11.76 22.92 35.09 28.4l9.53 2.23c32.05 7.5 44.42 26.17 44.42 48.48 0 30.63-31.84 49.09-58.82 49.09-26.37 0-32.86-14.6-48.28-14.6-8.92 0-9.53 7.3-10.14 16.23h-1.01l-4.06-84.18h1.01c10.14 33.26 21.91 81.13 62.68 81.13 14.4 0 29.61-7.1 29.61-21.91 0-12.98-8.11-21.09-35.09-27.38l-9.53-2.23c-22.92-5.27-43.41-21.7-43.41-49.49 0-31.24 30.63-48.27 55.58-48.27 22.92 0 31.24 11.36 39.55 11.36zM955.61 135.76h-30.42l-1.62 4.26c-15.42 41.38 10.75 61.87 31.64 62.88v.81h-80.12v-.81c11.76-1.01 29.21-16.43 41.58-49.09l22.11-58.62-13.39-32.66c20.89-1.42 32.45-6.9 38.33-25.76h.61l62.27 151.92c3.85 9.53 8.92 12.58 19.27 14.2v.81h-82.76v-.81c14.81-1.42 18.66-3.65 12.58-18.46l-20.08-48.67zm-.81-2.03l-15.01-36.51L926 133.73h28.8z"/></g></svg>