<?xml version="1.0" encoding="utf-8"?>
<!-- Generator: Adobe Illustrator 23.0.3, SVG Export Plug-In . SVG Version: 6.00 Build 0)  -->
<svg version="1.1" id="Capa_1" xmlns="http://www.w3.org/2000/svg" xmlns:xlink="http://www.w3.org/1999/xlink" x="0px" y="0px"
	 viewBox="0 0 612 534.97" style="enable-background:new 0 0 612 534.97;" xml:space="preserve">
<style type="text/css">
	.st0{fill:#FFFFFF;}
</style>
<g>
	<g>
		<path class="st0" d="M115.2,319.02c-27.44,0-40.17,17.34-40.17,34.1c0,8.84,0,36.87,0,36.87h17.32c0,0,0-26.37,0-36.87
			c0-10.5,6.08-27.44,22.85-27.44c16.77,0,22.85,16.94,22.85,27.44c0,10.5,0,36.87,0,36.87h17.32c0,0,0-28.02,0-36.87
			C155.36,336.36,142.64,319.02,115.2,319.02z"/>
		<path class="st0" d="M376.68,357.02c0,10.51-6.08,27.45-22.84,27.45c-16.77,0-22.86-16.95-22.86-27.45c0-10.5,0-36.86,0-36.86
			h-17.32c0,0,0,28.01,0,36.86c0,16.76,12.73,34.1,40.18,34.1c27.43,0,40.16-17.34,40.16-34.1c0-8.85,0-36.86,0-36.86h-17.32
			C376.68,320.16,376.68,346.51,376.68,357.02z"/>
		<path class="st0" d="M209.97,319.96c-16.79-0.43-42.47,10.59-41.55,36.67c0.9,25.53,25.3,37.03,42.89,34.27
			c5.79-0.9,10.37-3.11,14.07-6v-6.15c-2.33,2.1-11.13,3.82-17.33,3.46c-20.19-1.16-21.88-20.28-21.86-27.99
			c0.04-12.07,5.71-28.38,23.22-27.9c17.87,0.46,21.47,20.35,21.47,28.09c0,7.74,0,35.58,0,35.58h17.41c0,0,0-23.58,0-35.74
			C248.29,342.09,238.29,320.7,209.97,319.96z"/>
		<path class="st0" d="M290.85,393.26c-3.46-1.75-8.22-7.11-7.87-22.81c0.39-17.65,0-39.43,0-39.43h16.11v-10.85h-16.11v-30.79
			H265.4c0,0-0.02,68.13-0.02,77.48c0,28.02,13.51,31.7,21.65,33.82c7.27,1.9,13.54,0.44,15.95-0.41v-6.22
			C302.11,394.64,295.07,395.41,290.85,393.26z"/>
		<path class="st0" d="M435,319.87c-15.7,1.58-24.6,13.74-24.6,30.97c0,20.81,0,39.51,0,39.51h17.5c0,0,0-32.87,0-45.59
			c0-3.63,2.8-14.45,9.95-16.61c6.39-1.94,12.18-0.3,12.18-0.3v-7.01C450.03,320.83,446.06,318.76,435,319.87z"/>
		<path class="st0" d="M493.08,319.96c-16.77-0.43-42.46,10.59-41.54,36.67c0.9,25.53,25.31,37.03,42.88,34.27
			c5.79-0.9,10.38-3.11,14.07-6v-6.15c-2.32,2.1-11.11,3.82-17.32,3.46c-20.19-1.16-21.87-20.28-21.86-27.99
			c0.04-12.07,5.71-28.38,23.21-27.9c17.88,0.46,21.47,20.35,21.47,28.09c0,7.74,0,35.58,0,35.58h17.42c0,0,0-23.58,0-35.74
			C531.42,342.09,521.42,320.7,493.08,319.96z"/>
	</g>
	<path class="st0" d="M347.39,90.34c-22.78-6.93-36.9,9.87-43.4,31.28c-5.25,17.23-6.35,21.8-9.49,30.73
		c-4.38,12.57-14.83,13.54-22.99,3.79c-9.44-11.34-21.7-28.06-28.75-36.26c-9.2-10.68-31.31-19.68-42.54-5.83
		c-16.93,20.95,5.54,44.42,17.36,58.47c8.19,9.93,18.14,16.76,14.91,22.44c-1.19,2.1-3.83,2.79-7.23,2.75
		c-8.24-0.09-35.58-7.54-41.83-8.72c-5.44-1.02-9.46-0.65-10.99,3.38c-1.82,4.85,4.98,18.66,22.78,27.87
		c17.61,9.04,46.16,13.6,48.9,14.18c10.32,2.19,8.3,7.23,5.87,9.86c-2.38,2.6-5.2,4.21-4.59,6.84c1.44,6.55,15.49,7.85,23.9,9.28
		c8.19,1.39,18.72,2.07,26.11-0.89c7.22-2.87,7.63-6.87,12.62-8.84c6.67-2.55,8.96-0.27,23.29,2.39c9.12,1.7,25.32-0.42,34.2-3.39
		c16.64-5.56,23.47-10.85,23.45-13.44c0-2.06-2.9-2.84-5.86-3.19c-3.59-0.43-15.57-2.48-19.59-5.1c-4.07-2.6-1.02-7.33,7.36-10.67
		c8.42-3.33,35.41-14.6,45.54-23.74c10.16-9.09,19.77-24.2,11.22-33.02c-8.37-8.72-23.31,0.29-31.38,3.99
		c-10.85,5.1-28.22,14.04-34.19,15.39c-5.23,1.17-15.02,0.8-10.45-11.05c5.72-14.62,8.44-23.65,11.91-32.44
		C367.83,125.45,374.05,98.48,347.39,90.34 M388.43,122.52c-2.8,12.89-8.34,26.75-9.78,30.27c-0.23,0.55-0.07,0.72,0.45,0.48
		c3.19-1.48,17.54-8.65,32.77-15.14c15.23-6.41,43.46-6.32,36.23,24.98c-7.26,31.21-43.87,49.68-47.52,51.55
		c-3.56,1.83-7.97,3.67-9.72,4.79c-0.66,0.43-1.03,0.96,0.17,1.29c3.87,1.01,16.95,0.29,16.82,5.74
		c-0.16,5.93-9.74,15.62-34.81,26.26c-27.39,11.71-50.09,6.45-55.73,5.11c-0.19-0.04-0.33-0.01-0.43,0.11
		c-1.5,1.6-14.17,13.79-50.18,7.59c-25.93-4.47-32.36-7.04-38.17-14c-1.77-2.03-2.79-5.6-0.59-10.06c0.57-1.15,0.64-1.77-0.13-1.92
		c-39.05-8.11-62.85-32.81-71.47-48.39c-4.4-7.92-3.01-13.22-0.81-16.53c3.12-4.64,13.53-5.08,24.31-2.32
		c12.01,3.1,18.58,4.82,21.1,5.5c0.84,0.21,0.95-0.04,0.43-0.69c-3-3.75-13.57-17.11-19.06-25.65
		c-9.02-14.08-20.28-51.53,9.11-66.94c32.62-17,61.03,12.98,67.42,20.78c5.57,6.77,16.64,21.85,17.57,23.4
		c1.42,2.38,2.12,0.32,2.12,0.32s7.76-27.58,14.4-40.39c11.68-22.26,35.94-32.87,57.13-28.95
		C390.13,67.17,391.63,107.72,388.43,122.52z"/>
</g>
</svg>
