<?xml version="1.0" encoding="utf-8"?>
<!-- Generator: Adobe Illustrator 23.0.3, SVG Export Plug-In . SVG Version: 6.00 Build 0)  -->
<svg version="1.1" id="Layer_1" xmlns="http://www.w3.org/2000/svg" xmlns:xlink="http://www.w3.org/1999/xlink" x="0px" y="0px"
	 viewBox="0 0 958.06 841.89" style="enable-background:new 0 0 958.06 841.89;" xml:space="preserve">
<style type="text/css">
	.st0{fill:#FFFFFF;}
</style>
<g>
	<path class="st0" d="M445.84,592.68v22.68c-4.58-1.25-9.36-1.46-13.52-1.46c-28.5,0-47.85,19.14-47.85,49.73
		c0,31.21,18.93,48.48,48.48,48.48c13.52,0,26.84-1.87,38.7-5.83V571.67c-7.28,2.7-14.98,6.45-21.43,11.65
		C446.88,586.02,445.84,588.73,445.84,592.68z M445.84,689.64c-4.37,1.25-7.49,1.46-11.03,1.46c-17.06,0-23.72-11.24-23.72-27.46
		c0-18.1,6.66-29.13,23.51-29.13c4.99,0,8.11,0.62,11.24,1.46V689.64z M174.95,613.9c-7.49,0-14.77,1.66-19.35,3.95v-46.19
		c-7.28,2.7-14.98,6.45-21.43,11.65c-3.33,2.7-4.37,5.41-4.37,9.36V706.7c6.87,2.91,20.81,5.41,34.12,5.41
		c33.71,0,53.06-20.6,53.06-50.35C216.97,632.21,203.24,613.9,174.95,613.9z M165.37,691.1c-2.7,0-6.87,0-9.78-1.04v-51.81
		c3.54-1.87,8.53-2.91,14.98-2.91c12.9,0,19.77,8.95,19.77,25.8C190.34,678.82,182.23,691.1,165.37,691.1z M282.72,614.74
		c-12.28,0-19.35,4.79-26.01,13.32c-0.62-4.37-1.46-7.91-2.91-12.28c-2.5-0.83-6.87-1.04-10.61-1.04c-3.54,0-8.11,0.42-10.4,1.04
		v94.25c3.12,0.83,8.32,1.04,12.9,1.04c4.37,0,10.2-0.42,12.9-1.04v-45.98c0-18.31,9.57-28.09,22.47-28.09c2.29,0,6.24,0,8.53,0.42
		c1.46-6.03,1.66-14.77,0.42-20.81C288.55,615.15,284.8,614.74,282.72,614.74z M330.37,613.49c-10.2-0.21-19.14,1.04-27.88,3.12
		c-1.66,5.83-1.46,14.36,0,20.39c10.82-2.5,16.85-2.7,23.72-2.7c13.32,0,19.77,5.41,19.77,16.44v1.04
		c-3.95-0.42-8.74-0.83-12.07-0.83c-22.05,0-40.99,7.91-40.99,29.13c0,23.93,17.06,32.04,41.82,32.04c11.65,0,24.34-2.08,35.99-5.62
		V652.6C370.73,626.8,356.79,614.11,330.37,613.49z M345.97,690.89c-1.46,0.42-7.91,1.04-11.03,1.04
		c-11.86,0-18.31-3.54-18.31-11.86c0-8.32,6.45-11.65,18.31-11.65c3.95,0,8.53,0.42,11.03,0.62V690.89z M710.71,690.89
		c-12.9,0-21.43-10.2-21.43-28.09c0-17.06,6.87-28.09,21.64-28.09c6.24,0,10.61,1.04,16.44,3.33c1.66-5.83,4.79-12.48,9.15-18.1
		c-8.11-4.16-16.02-6.45-28.92-6.45c-28.5,0-44.94,20.18-44.94,49.31c0,30.17,16.85,49.31,45.98,49.31c10.61,0,20.39-1.87,28.3-6.24
		c-3.54-4.58-7.49-10.82-9.78-18.1C719.86,690.68,716.74,690.89,710.71,690.89z M782.91,613.49c-28.92,0-45.15,19.77-45.15,49.52
		c0,30.17,17.06,49.1,45.15,49.1c29.13,0,45.36-19.35,45.36-49.1C828.26,633.05,812.03,613.49,782.91,613.49z M782.91,691.3
		c-14.36,0-18.73-11.65-18.73-28.3c0-16.23,4.37-28.71,18.73-28.71c14.77,0,18.93,12.07,18.93,28.71
		C801.84,680.48,797.05,691.3,782.91,691.3z M630.4,654.06l-10.4-4.37c-6.03-2.5-9.57-4.58-9.57-8.53c0-6.03,5.41-7.28,12.48-7.28
		c7.07,0,14.36,0.83,24.34,3.95c1.25-6.87,1.25-13.32,0-19.35c-6.24-3.33-17.89-4.99-28.09-4.99c-19.97,0-35.16,10.82-35.16,27.05
		c0,14.56,6.24,21.85,23.72,28.92l8.11,3.33c7.7,3.12,9.99,4.99,9.99,9.99c0,7.49-7.49,8.74-13.73,8.74
		c-10.4,0-18.31-2.08-28.3-5.62c-1.66,6.03-1.66,13.94,0,20.18c8.53,4.58,20.18,6.03,32.46,6.03c19.77,0,35.58-10.4,35.58-29.13
		C651.83,667.58,645.17,660.3,630.4,654.06z M531.15,613.49c-27.88,0-44.94,18.73-44.94,49.94c0,31.21,18.1,48.69,49.1,48.69
		c10.61,0,22.05-1.87,29.34-5.41c1.46-6.03,1.46-13.94,0-19.97c-9.57,2.7-17.69,4.37-26.63,4.37c-14.36,0-24.34-5.41-26.42-20.6
		h58.67c0.83-2.29,1.04-9.99,1.04-13.11C571.31,629.3,555.49,613.49,531.15,613.49z M511.59,651.56
		c1.87-11.44,8.74-18.31,19.14-18.31c11.65,0,16.23,7.91,16.65,18.31H511.59z"/>
	<g>
		<path class="st0" d="M468.07,212c-23.46,0-49.1,2.15-74.44,6.46c25.65-32.93,66.3-54.16,111.65-54.16
			c33.47,0,66.93,12.62,89.45,31.39c4.07,3.38,7.19,3.69,10.32,0.62c3.13-3.08,2.81-6.15-0.63-10.15
			c-29.4-34.16-72.56-57.24-123.54-56.31c-66.62,1.23-123.23,43.39-144.81,101.86c-19.7,6.15-37.84,13.54-53.79,22.46
			c-4.38,2.46-5.94,5.54-4.38,9.23c1.56,3.38,4.69,4.62,9.07,3.38c13.76-4,27.84-7.39,42.54-10.46c-1.56,7.69-2.5,15.69-2.5,24
			c-1.25,53.85,27.52,104.93,71.93,132.94c4.38,2.77,8.13,2.77,10.63-0.62c2.5-3.38,2.19-6.46-1.56-9.85
			c-28.15-25.23-43.79-62.78-43.79-100.01c0-18.77,3.75-36.93,10.95-53.24c14.7-1.23,30.65-2.15,48.16-2.15
			c113.84,0,209.86,37.54,209.86,86.78c0,24.93-31.59,49.85-69.12,66.47c-9.07,4-10.01,6.77-8.76,10.77
			c1.25,3.69,5.32,4.92,10.01,3.38c65.68-21.54,115.41-56.93,115.41-99.7C680.74,256.92,586.91,212,468.07,212z"/>
		<path class="st0" d="M522.43,507.82v-124.6c0-4.77-4.61-6.52-8.41-4.35l-31.68,18.23v116.73l34.03,0.04
			C519.71,513.87,522.43,511.16,522.43,507.82z"/>
		<path class="st0" d="M443.78,423.8v86.16c0,2.16,1.75,3.9,3.9,3.9h23.97V403.23l-23.93,13.78
			C445.29,418.4,443.78,420.59,443.78,423.8z"/>
	</g>
</g>
</svg>
