<?xml version="1.0" encoding="utf-8"?>
<!-- Generator: Adobe Illustrator 23.0.3, SVG Export Plug-In . SVG Version: 6.00 Build 0)  -->
<svg version="1.1" id="Layer_1" xmlns="http://www.w3.org/2000/svg" xmlns:xlink="http://www.w3.org/1999/xlink" x="0px" y="0px"
	 viewBox="0 0 1920 1080" style="enable-background:new 0 0 1920 1080;" xml:space="preserve">
<style type="text/css">
	.st0{fill:#FF677D;}
	.st1{fill:#285C80;}
	.st2{fill:#FFFFFF;}
	.st3{fill:#61B6F7;}
	.st4{fill:#CC6683;}
	.st5{fill:#70597D;}
	.st6{fill:#7ADAD9;}
	.st7{fill:#FBB57C;}
	.st8{clip-path:url(#SVGID_2_);fill:#285C80;}
	.st9{clip-path:url(#SVGID_2_);fill:#CC6683;}
	.st10{clip-path:url(#SVGID_2_);}
	.st11{clip-path:url(#SVGID_4_);fill:#285C80;}
	.st12{clip-path:url(#SVGID_4_);fill:#CC6683;}
	.st13{clip-path:url(#SVGID_4_);}
	.st14{clip-path:url(#SVGID_6_);}
	.st15{clip-path:url(#SVGID_8_);fill:#285C80;}
	.st16{clip-path:url(#SVGID_8_);fill:#CC6683;}
	.st17{clip-path:url(#SVGID_8_);}
	.st18{clip-path:url(#SVGID_8_);fill:#FF677D;}
	.st19{clip-path:url(#SVGID_10_);fill:#285C80;}
	.st20{clip-path:url(#SVGID_10_);fill:#CC6683;}
	.st21{clip-path:url(#SVGID_10_);}
</style>
<g>
	<g>
		<g>
			<path class="st2" d="M274,325c-118.74,0-215,96.26-215,215c0,118.74,96.26,215,215,215s215-96.26,215-215
				C489,421.26,392.74,325,274,325 M482.84,540c0,51.07-18.36,97.84-48.8,134.13c7.59-9.31,14.65-19.68,21.06-30.86
				c20.14-35.11,22.58-74.21,10.39-102.44c1.83-10.64,2.68-21.58,2.35-32.78c-1.63-54.34-34.84-108.48-78.64-142.22
				C445.61,403.21,482.84,467.25,482.84,540 M281.02,337.46c70.2-0.96,131.6,41.67,159.68,100.91
				c10.73,22.62,16.78,48.31,16.85,73.98c0.01,4.62-0.22,9.17-0.56,13.68c-8.07-10.77-19.06-18.69-32.73-22.31
				c-9.32-2.47-19.05-2.71-28.85-1.1c-34.18-42.38-90.23-70.16-149.16-70.16c-62.11,0-115.19,29.13-143.56,75.17
				C104.09,415.89,176.81,338.89,281.02,337.46 M288.8,682.94c-2.77,0.12-5.56,0.2-8.36,0.2c-90.12,0-166.19-68.97-176.56-153.24
				c23.77-44.58,74.91-70.6,134.4-70.6c42.58,0,90.91,21.59,125.48,54.62c-30.66,16.61-58.32,48.06-71.85,82.08
				C278.87,628.81,277.87,659.95,288.8,682.94 M305.89,611c13.44-33.37,44.53-63.75,77.03-75.66
				c16.83,22.25,27.37,47.84,27.37,74.63c0,7.22-0.53,14.18-1.48,20.91c-28.15,28.22-66.33,46.8-108.78,51.21
				C292.68,662.98,295.03,637.96,305.89,611 M406.64,642.58c-7.24,31.51-24.93,56.9-49.06,74.7c-6.36,0.2-12.71-0.5-18.95-2.22
				c-17.28-4.76-29.06-14.22-35.84-26.92C342.29,683.26,378.37,666.89,406.64,642.58 M426.82,622.31
				c15.5-18.17,27.27-39.24,34.16-62.22c11.59,23.56,8.67,57.43-9.86,89.07c-18.93,32.32-47.47,57.87-77.13,65.68
				C401.22,692.19,420.41,660.03,426.82,622.31 M413.33,530.08c4.5,0.17,8.92,0.78,13.22,1.92c11.37,3.01,20.43,8.94,27.15,16.9
				c-4.61,21.23-13.23,40.78-25.01,58.03c0.31-4.14,0.51-8.32,0.51-12.57C429.2,571.51,423.44,549.78,413.33,530.08 M278.14,689.71
				c4.72,0,9.39-0.22,14.03-0.55c8.42,13.69,21.71,23.81,39.89,28.63c7.11,1.89,14.1,2.73,20.95,2.7
				c-24.85,16.81-55.82,25.98-88.89,25.98c-95.72,0-173.61-79.99-174.43-156c-0.15-13.81,1.72-26.72,5.27-38.66
				C116.09,630.45,189.93,689.71,278.14,689.71 M369.09,718.73c16.2-3.49,31.44-12.05,45.37-24.19
				c-26.16,23.79-58.41,40.97-94.11,49.07C338.19,738.22,354.66,729.76,369.09,718.73 M191.12,348.3
				c-60.3,29.98-102.25,101.23-102.25,157.48c0,8.75,0.68,17.35,1.92,25.8c-6.56,16.97-10.14,35.57-10.14,55.38
				c0,29.12,10.5,56.57,27.89,80.39C81.36,632.1,65.16,587.95,65.16,540C65.16,454.12,117.02,380.38,191.12,348.3"/>
			<g>
				<path class="st2" d="M274,325c-118.74,0-215,96.26-215,215c0,118.74,96.26,215,215,215s215-96.26,215-215
					C489,421.26,392.74,325,274,325z M482.84,540c0,51.07-18.36,97.84-48.8,134.13c7.59-9.31,14.65-19.68,21.06-30.86
					c20.14-35.11,22.58-74.21,10.39-102.44c1.83-10.64,2.68-21.58,2.35-32.78c-1.63-54.34-34.84-108.48-78.64-142.22
					C445.61,403.21,482.84,467.25,482.84,540z M281.02,337.46c70.2-0.96,131.6,41.67,159.68,100.91
					c10.73,22.62,16.78,48.31,16.85,73.98c0.01,4.62-0.22,9.17-0.56,13.68c-8.07-10.77-19.06-18.69-32.73-22.31
					c-9.32-2.47-19.05-2.71-28.85-1.1c-34.18-42.38-90.23-70.16-149.16-70.16c-62.11,0-115.19,29.13-143.56,75.17
					C104.09,415.89,176.81,338.89,281.02,337.46z M288.8,682.94c-2.77,0.12-5.56,0.2-8.36,0.2c-90.12,0-166.19-68.97-176.56-153.24
					c23.77-44.58,74.91-70.6,134.4-70.6c42.58,0,90.91,21.59,125.48,54.62c-30.66,16.61-58.32,48.06-71.85,82.08
					C278.87,628.81,277.87,659.95,288.8,682.94z M305.89,611c13.44-33.37,44.53-63.75,77.03-75.66
					c16.83,22.25,27.37,47.84,27.37,74.63c0,7.22-0.53,14.18-1.48,20.91c-28.15,28.22-66.33,46.8-108.78,51.21
					C292.68,662.98,295.03,637.96,305.89,611z M406.64,642.58c-7.24,31.51-24.93,56.9-49.06,74.7c-6.36,0.2-12.71-0.5-18.95-2.22
					c-17.28-4.76-29.06-14.22-35.84-26.92C342.29,683.26,378.37,666.89,406.64,642.58z M426.82,622.31
					c15.5-18.17,27.27-39.24,34.16-62.22c11.59,23.56,8.67,57.43-9.86,89.07c-18.93,32.32-47.47,57.87-77.13,65.68
					C401.22,692.19,420.41,660.03,426.82,622.31z M413.33,530.08c4.5,0.17,8.92,0.78,13.22,1.92c11.37,3.01,20.43,8.94,27.15,16.9
					c-4.61,21.23-13.23,40.78-25.01,58.03c0.31-4.14,0.51-8.32,0.51-12.57C429.2,571.51,423.44,549.78,413.33,530.08z
					 M278.14,689.71c4.72,0,9.39-0.22,14.03-0.55c8.42,13.69,21.71,23.81,39.89,28.63c7.11,1.89,14.1,2.73,20.95,2.7
					c-24.85,16.81-55.82,25.98-88.89,25.98c-95.72,0-173.61-79.99-174.43-156c-0.15-13.81,1.72-26.72,5.27-38.66
					C116.09,630.45,189.93,689.71,278.14,689.71z M369.09,718.73c16.2-3.49,31.44-12.05,45.37-24.19
					c-26.16,23.79-58.41,40.97-94.11,49.07C338.19,738.22,354.66,729.76,369.09,718.73z M191.12,348.3
					c-60.3,29.98-102.25,101.23-102.25,157.48c0,8.75,0.68,17.35,1.92,25.8c-6.56,16.97-10.14,35.57-10.14,55.38
					c0,29.12,10.5,56.57,27.89,80.39C81.36,632.1,65.16,587.95,65.16,540C65.16,454.12,117.02,380.38,191.12,348.3z"/>
			</g>
		</g>
	</g>
	<g>
		<g>
			<path class="st2" d="M618.3,557.39c0-86.82,71.07-142.9,158.65-142.9c87.59,0,158.65,56.08,158.65,142.9
				S864.54,699.9,776.96,699.9C689.37,699.9,618.3,644.2,618.3,557.39z M849.95,622.31c0-23.43-4.22-51.48-12.29-81.44
				c-18.82-71.45-49.94-121.77-86.43-121.77c-28.43,0-47.25,24.2-47.25,72.99c0,23.43,4.23,51.48,12.29,81.44
				c18.82,71.45,49.94,121.77,86.43,121.77C831.12,695.3,849.95,671.09,849.95,622.31z"/>
			<path class="st2" d="M982.47,475.56l-44.94-52.63v-1.54h110.64l156.73,180.93v-40.72c0-90.27-70.68-135.6-101.8-138.68v-1.54
				h149.82v1.54c-31.12,3.07-44.95,48.4-44.95,129.84v142.13h-37.65L985.54,479.02v75.68c0,90.28,70.68,135.61,101.8,138.68v1.54
				H937.52v-1.54c31.12-3.07,44.94-48.4,44.94-129.84V475.56z"/>
			<path class="st2" d="M1385.43,421.4c96.04,0,183.62,31.12,183.62,134.45c0,102.18-76.06,139.06-179.78,139.06h-129.84v-1.54
				c26.89-6.15,34.57-24.97,34.57-76.83V499.76c0-51.86-7.68-70.68-34.57-76.83v-1.54H1385.43z M1378.52,692.99
				c73.76,0,99.49-59.16,99.49-137.14c0-79.9-29.96-132.53-99.49-132.53V692.99z"/>
			<path class="st2" d="M1690.05,566.22h-57.62l-3.07,8.07c-29.2,78.37,20.36,117.17,59.93,119.09v1.54h-151.74v-1.54
				c22.28-1.92,55.32-31.12,78.75-92.96l41.87-111.02l-25.35-61.85c39.56-2.69,61.46-13.06,72.6-48.79h1.15l117.93,287.73
				c7.3,18.05,16.9,23.82,36.49,26.89v1.54h-156.73v-1.54c28.04-2.69,35.34-6.91,23.82-34.96L1690.05,566.22z M1688.52,562.38
				l-28.43-69.15l-26.12,69.15H1688.52z"/>
		</g>
	</g>
</g>
</svg>
