<?xml version="1.0" encoding="utf-8"?>
<!-- Generator: Adobe Illustrator 23.0.3, SVG Export Plug-In . SVG Version: 6.00 Build 0)  -->
<svg version="1.1" id="Layer_1" xmlns="http://www.w3.org/2000/svg" xmlns:xlink="http://www.w3.org/1999/xlink" x="0px" y="0px"
	 viewBox="0 0 1000 1000" style="enable-background:new 0 0 1000 1000;" xml:space="preserve">
<style type="text/css">
	.st0{fill:#FFFFFF;}
</style>
<path class="st0" d="M27.17,436.65c5.3,1.3,8.3,2.4,12.7,10.2c15.3,28.1,30.7,59,45.5,89.5c1.9,1.6,4,1.9,7.3,1.9
	c3.1,0,5.2-0.3,7.2-1.9c7.1-13.4,25.9-49.3,33.9-63.3c9.4,17.3,25.6,48.7,32.1,63.3c1.8,1.6,4,1.9,7.1,1.9c3.1,0,5.4-0.3,7.2-1.9
	c13.1-28.6,27.4-58.2,41.8-85.8c5-9.9,7.2-12.6,17.4-14.5l4.4-0.7c2.5-2.5,1.8-8.3-0.9-9.5c-6.9,0.6-15,0.8-24,0.8
	c-7.8,0-15.2-0.2-25.5-0.8c-3.1,1.2-3.1,7.5-1.2,9.5l5.3,1c5.4,1.1,7.8,2.5,7.8,3.8c0,1.9-0.9,5.6-2.9,10.4
	c-5,12.5-9.8,25.7-17.4,41.3c-6.9-13-15.5-30.5-21.2-43.4c-1.8-4.5-2.5-6.2-2.5-8.3c0-1.4,4.3-2.7,11.6-4l4.6-0.7
	c2.2-1.1,2.5-9.2-0.9-9.5c-19.9,0.6-35.5,0.8-55.2,0.8h-63c-13.1,0-23.1-0.2-35.9-0.8c-3.2,1.3-3.2,7.3-1,9.5L27.17,436.65z
	 M97.87,436.65c5.7,0,10.7,0.2,15,1c6.2,1.1,11.6,9.8,11.6,14c0,2.1,0,4.5-0.9,8.1c-1.6,5.4-12.1,24.8-16.5,32.1
	c-5.3-8.6-17.8-32.9-22.1-42.3c-1.9-4-2.8-7.3-2.8-8.9C81.97,437.65,87.87,436.65,97.87,436.65z M287.37,538.25
	c18.7,0,41.8-7.8,54.6-30.7c0-4.6-4.7-6.8-8.1-6.3c-8.4,12.5-20.3,14-29,14c-29,0-44-19.7-44-39.8c0-4.3,0.7-4.9,7.8-4.9h59.7
	c9.7,0,11.2-3.8,11.2-8.9c0-20.7-17.4-38.8-49.9-38.8c-38.9,0-67.3,26.4-67.3,60.4C222.67,512.65,245.37,538.25,287.37,538.25z
	 M287.77,435.35c10.6,0,16.5,5.9,16.5,14.8c0,2.7-0.7,5.5-2.1,6.2c-3.5,1.9-8.4,2.4-12.8,2.4h-11.6c-10,0-14.4-0.2-14.4-4
	C263.47,446.05,274.67,435.35,287.77,435.35z M349.07,436.65c5.4,1.3,8.4,2.4,12.8,10.2c15.3,28.1,30.6,59,45.5,89.5
	c1.9,1.6,4,1.9,7.2,1.9c3.1,0,5.2-0.3,7.2-1.9c7.2-13.4,25.9-49.3,34-63.3c9.3,17.3,25.5,48.7,32.1,63.3c1.9,1.6,4,1.9,7.1,1.9
	c3.1,0,5.4-0.3,7.2-1.9c13.1-28.6,27.4-58.2,41.8-85.8c5-9.9,7.1-12.6,17.4-14.5l4.4-0.7c2.5-2.5,1.8-8.3-1-9.5
	c-6.9,0.6-15,0.8-24,0.8c-7.8,0-15.2-0.2-25.5-0.8c-3.1,1.2-3.1,7.5-1.2,9.5l5.3,1c5.3,1.1,7.8,2.5,7.8,3.8c0,1.9-0.9,5.6-2.8,10.4
	c-5,12.5-10,25.7-17.5,41.3c-6.9-13-15.5-30.5-21.2-43.4c-1.9-4.5-2.5-6.2-2.5-8.3c0-1.4,4.3-2.7,11.6-4l4.6-0.7
	c2.2-1.1,2.6-9.2-0.9-9.5c-19.9,0.6-35.5,0.8-55.2,0.8h-63c-13.1,0-23.1-0.2-35.9-0.8c-3.1,1.3-3.1,7.3-0.9,9.5L349.07,436.65z
	 M419.87,436.65c5.7,0,10.7,0.2,15,1c6.2,1.1,11.6,9.8,11.6,14c0,2.1,0,4.5-0.9,8.1c-1.6,5.4-12.1,24.8-16.5,32.1
	c-5.4-8.6-17.8-32.9-22.1-42.3c-1.8-4-2.8-7.3-2.8-8.9C403.97,437.65,409.87,436.65,419.87,436.65z M615.97,538.25
	c38.3,0,71.6-18.6,71.6-58c0-38-33.1-57.4-69.8-57.4c-36.8,0-72,21.3-71.7,59.8C546.47,519.85,578.77,538.25,615.97,538.25z
	 M615.97,435.35c17.7,0,26.4,22.6,26.8,48.7c0.2,24.3-5.7,41.8-23.5,41.8c-18,0-28.3-20.8-28.3-49.1
	C590.97,447.45,602.27,435.35,615.97,435.35z M740.77,446.05c1.9,0,4.7,0.2,11.8,5.4c4,3.3,7.8,4.9,12.1,4.9c10,0,20-5.1,20-17.5
	c0-10.2-8.8-15.9-17.2-15.9c-13.1,0-22.1,8.9-30.5,13.5c-2.5-0.5-3.1-1.3-3.1-3.2c0-2.4,0.7-6.2,1.2-11.6c-1.2-1.6-3.1-2.5-5.5-2.5
	c-9.7,5.5-31.2,12.7-45.6,16.3c-2.1,1.6-2.1,6.4,0,8.1l4.5,2.4c5.9,3.2,5.9,6.4,5.9,17.3v40.7c0,18.8-1.2,21.3-11.6,22.1l-5.9,0.5
	c-2.5,1.7-2.5,7.8,0.3,9.5c10.3-0.6,24-0.8,36.8-0.8c14.6,0,27.1,0.2,42.1,0.8c2.8-1.7,2.8-7.8,0.2-9.5l-10-0.7
	c-10.3-0.8-11.6-3-11.6-21.9v-41.5C734.77,452.05,736.37,446.05,740.77,446.05z M862.77,524.95l-4,0.8c-2.6,2.4-1.9,8,1.2,9.4
	c8.8-0.5,19.9-0.8,38.4-0.8c18.1,0,29.6,0.2,39.2,0.8c3.1-1,3.8-7.5,1.2-9.4l-4.6-0.8c-8.1-1.3-14-2.7-18.3-6.2
	c-7.8-6.2-35.3-42.9-40.8-51.5c-1.7-2.1-2.3-3.7-2.3-4.5c0-0.8,0.3-1.9,1.8-3.6c4.4-3.7,9.2-7.8,20.9-15.6c8.3-5.6,15-8.3,20.9-9.4
	l9.9-1.9c2.2-2.1,1.9-8.1-1.2-9.4c-18.3,2.5-44.2,3.8-58.9,3.8h-7.4c-3.1,1.2-3.5,7-0.7,9.4l7.8,1.2c2.8,0.2,5.9,1.3,5.9,2.6
	c0,1.7-1.5,4.5-7.4,10.7l-13.1,13.4c-6.3,6.2-12.8,7.5-18.1,7.5c-3.4,0-4.4-0.8-4.4-3.8v-84.6c0-17,0.4-28.3,1-39.4
	c-1.2-1.4-3.5-1.9-5.4-1.9c-15.9,5.9-34.9,12.4-47.7,15c-2.2,1.7-2.2,6.5,0,8.1l5.3,2.7c6.2,3.2,6.2,6.2,6.2,17v118.5
	c0,18.8-1.2,21-12.6,22.1l-5.9,0.5c-2.5,1.6-2.5,7.8,0.3,9.4c10.9-0.5,23.7-0.8,38-0.8c14.4,0,27.4,0.2,37.4,0.8
	c2.7-1.6,2.7-7.8,0.2-9.4l-5-0.5c-11-1.2-12.2-3.3-12.2-22.1v-15.6c0-5.1,1.6-6.4,3.7-6.4c3.1,0,5.6,1.1,7.8,4l22.3,29.1
	c2.5,3.2,5.3,7.5,5.3,8.7C867.77,523.95,865.97,524.45,862.77,524.95z M963.87,537.85c-8.9,0-16.2-7.3-16.2-16.2s7.3-16.2,16.2-16.2
	c8.9,0,16.2,7.3,16.2,16.2C980.07,530.65,972.77,537.85,963.87,537.85z M963.87,508.65c-7.2,0-13.1,5.9-13.1,13.1
	c0,7.2,5.9,13.1,13.1,13.1c7.2,0,13.1-5.9,13.1-13.1C976.77,514.45,971.07,508.65,963.87,508.65z M966.67,529.85l-3.2-5.9h-2.6v5.9
	h-3.6v-16.5h7.7c3.5,0,5.5,2.2,5.5,5.3c0,2.9-1.8,4.5-3.6,4.9l3.7,6.3H966.67L966.67,529.85z M966.97,518.65c0-1.4-1.1-2.2-2.5-2.2
	h-3.7v4.5h3.7C965.87,520.85,966.97,520.05,966.97,518.65z"/>
</svg>
