<?xml version="1.0" encoding="utf-8"?>
<!-- Generator: Adobe Illustrator 23.0.3, SVG Export Plug-In . SVG Version: 6.00 Build 0)  -->
<svg version="1.1" id="Layer_1" xmlns="http://www.w3.org/2000/svg" xmlns:xlink="http://www.w3.org/1999/xlink" x="0px" y="0px"
	 viewBox="0 0 1920 1080" style="enable-background:new 0 0 1920 1080;" xml:space="preserve">
<style type="text/css">
	.st0{fill:#FF677D;}
	.st1{fill:#285C80;}
	.st2{fill:#FFFFFF;}
	.st3{fill:#61B6F7;}
	.st4{fill:#CC6683;}
	.st5{fill:#70597D;}
	.st6{fill:#7ADAD9;}
	.st7{fill:#FBB57C;}
	.st8{clip-path:url(#SVGID_2_);fill:#285C80;}
	.st9{clip-path:url(#SVGID_2_);fill:#CC6683;}
	.st10{clip-path:url(#SVGID_2_);}
	.st11{clip-path:url(#SVGID_4_);fill:#285C80;}
	.st12{clip-path:url(#SVGID_4_);fill:#CC6683;}
	.st13{clip-path:url(#SVGID_4_);}
	.st14{clip-path:url(#SVGID_6_);}
	.st15{clip-path:url(#SVGID_8_);fill:#285C80;}
	.st16{clip-path:url(#SVGID_8_);fill:#CC6683;}
	.st17{clip-path:url(#SVGID_8_);}
	.st18{clip-path:url(#SVGID_8_);fill:#FF677D;}
	.st19{clip-path:url(#SVGID_10_);fill:#285C80;}
	.st20{clip-path:url(#SVGID_10_);fill:#CC6683;}
	.st21{clip-path:url(#SVGID_10_);}
</style>
<g>
	<g>
		<defs>
			
				<rect id="SVGID_7_" x="0.15" transform="matrix(-1 -1.224647e-16 1.224647e-16 -1 1920.451 1080)" width="1920.15" height="1080"/>
		</defs>
		<clipPath id="SVGID_2_">
			<use xlink:href="#SVGID_7_"  style="overflow:visible;"/>
		</clipPath>
		<polygon class="st9" points="591.66,1027.3 591.66,1026.92 591.89,1026.92 		"/>
		<polygon style="clip-path:url(#SVGID_2_);fill:#FF677D;" points="666.02,1155.24 591.89,1026.92 739.93,1026.92 740.15,1026.92 		
			"/>
		<polygon class="st8" points="888.19,1026.92 888.41,1026.92 814.28,1155.24 740.15,1026.92 		"/>
		<polygon style="clip-path:url(#SVGID_2_);fill:#FF677D;" points="1036.45,1026.92 1036.68,1026.92 962.55,1155.24 888.41,1026.92 
					"/>
		<polygon class="st8" points="1184.72,1026.92 1184.94,1026.92 1110.81,1155.24 1036.68,1026.92 		"/>
		<polygon class="st9" points="1332.98,1026.92 1333.21,1026.92 1259.08,1155.24 1184.94,1026.92 		"/>
		<polygon class="st8" points="1481.25,1026.92 1481.47,1026.92 1407.34,1155.24 1333.21,1026.92 		"/>
		<polygon class="st9" points="1629.51,1026.92 1629.74,1026.92 1555.6,1155.24 1481.47,1026.92 		"/>
		<g class="st10">
			<polygon class="st5" points="1777.78,1026.92 1778,1026.92 1703.87,1155.24 1629.74,1026.92 			"/>
		</g>
		<polygon style="clip-path:url(#SVGID_2_);fill:#FF677D;" points="1778,1026.92 1926.04,1026.92 1926.26,1026.92 1852.13,1155.24 
					"/>
		<polygon style="clip-path:url(#SVGID_2_);fill:#FF677D;" points="1926.26,1026.92 1926.26,1155.24 1852.13,1155.24 		"/>
		<g class="st10">
			<polygon class="st5" points="1852.13,1155.24 1851.91,1155.24 1703.87,1155.24 1778,1026.92 			"/>
		</g>
		<g class="st10">
			<polygon class="st5" points="1703.87,1155.24 1703.64,1155.24 1555.6,1155.24 1629.74,1026.92 			"/>
		</g>
		<polygon class="st9" points="1555.6,1155.24 1555.38,1155.24 1407.34,1155.24 1481.47,1026.92 		"/>
		<polygon class="st8" points="1407.34,1155.24 1407.12,1155.24 1259.08,1155.24 1333.21,1026.92 		"/>
		<polygon class="st9" points="1259.08,1155.24 1258.85,1155.24 1110.81,1155.24 1184.94,1026.92 		"/>
		<polygon class="st8" points="1110.81,1155.24 1110.59,1155.24 962.55,1155.24 1036.68,1026.92 		"/>
		<polygon class="st8" points="962.55,1155.24 962.32,1155.24 814.28,1155.24 888.41,1026.92 		"/>
		<polygon style="clip-path:url(#SVGID_2_);fill:#FF677D;" points="814.28,1155.24 814.06,1155.24 666.02,1155.24 740.15,1026.92 		
			"/>
		<polygon class="st8" points="666.02,1155.24 665.79,1155.24 591.66,1155.24 591.66,1027.3 591.89,1026.92 		"/>
		<polygon style="clip-path:url(#SVGID_2_);fill:#FF677D;" points="591.66,1026.92 591.66,898.59 665.79,898.59 		"/>
		<polygon class="st8" points="739.93,1026.92 665.79,898.59 666.02,898.59 814.06,898.59 		"/>
		<polygon style="clip-path:url(#SVGID_2_);fill:#FF677D;" points="888.19,1026.92 814.06,898.59 814.28,898.59 962.32,898.59 		"/>
		<polygon style="clip-path:url(#SVGID_2_);fill:#FF677D;" points="962.55,898.59 1110.59,898.59 1036.45,1026.92 962.32,898.59 		
			"/>
		<polygon class="st8" points="1110.81,898.59 1258.85,898.59 1184.72,1026.92 1110.59,898.59 		"/>
		<polygon class="st9" points="1259.08,898.59 1407.12,898.59 1332.98,1026.92 1258.85,898.59 		"/>
		<polygon class="st8" points="1407.34,898.59 1555.38,898.59 1481.25,1026.92 1407.12,898.59 		"/>
		<polygon class="st9" points="1555.6,898.59 1703.64,898.59 1629.51,1026.92 1555.38,898.59 		"/>
		<polygon style="clip-path:url(#SVGID_2_);fill:#FF677D;" points="1703.64,898.59 1703.87,898.59 1851.91,898.59 1777.78,1026.92 
					"/>
		<polygon class="st8" points="1851.91,898.59 1852.13,898.59 1926.26,898.59 1926.26,1026.53 1926.04,1026.92 		"/>
		<polygon style="clip-path:url(#SVGID_2_);fill:#FF677D;" points="1851.91,898.59 1926.04,1026.92 1778,1026.92 1777.78,1026.92 		
			"/>
		<g class="st10">
			<polygon class="st5" points="1777.78,1026.92 1629.74,1026.92 1629.51,1026.92 1703.64,898.59 			"/>
		</g>
		<polygon class="st9" points="1629.51,1026.92 1481.47,1026.92 1481.25,1026.92 1555.38,898.59 		"/>
		<polygon class="st8" points="1481.25,1026.92 1333.21,1026.92 1332.98,1026.92 1407.12,898.59 		"/>
		<polygon class="st9" points="1332.98,1026.92 1184.94,1026.92 1184.72,1026.92 1258.85,898.59 		"/>
		<polygon class="st8" points="1184.72,1026.92 1036.68,1026.92 1036.45,1026.92 1110.59,898.59 		"/>
		<polygon class="st9" points="1036.45,1026.92 888.41,1026.92 888.19,1026.92 962.32,898.59 		"/>
		<polygon class="st8" points="888.19,1026.92 740.15,1026.92 739.93,1026.92 814.06,898.59 		"/>
		<polygon style="clip-path:url(#SVGID_2_);fill:#FF677D;" points="739.93,1026.92 591.89,1026.92 591.66,1026.92 665.79,898.59 		
			"/>
		<polygon class="st9" points="591.66,770.65 591.66,770.27 591.89,770.27 		"/>
		<polygon class="st8" points="666.02,898.59 591.89,770.27 739.93,770.27 740.15,770.27 		"/>
		<polygon style="clip-path:url(#SVGID_2_);fill:#FF677D;" points="814.28,898.59 740.15,770.27 888.19,770.27 888.41,770.27 		"/>
		<polygon class="st8" points="962.55,898.59 888.41,770.27 1036.45,770.27 1036.68,770.27 		"/>
		<polygon style="clip-path:url(#SVGID_2_);fill:#FF677D;" points="1184.72,770.27 1184.94,770.27 1110.81,898.59 1036.68,770.27 		
			"/>
		<polygon class="st8" points="1332.98,770.27 1333.21,770.27 1259.08,898.59 1184.94,770.27 		"/>
		<polygon class="st9" points="1481.25,770.27 1481.47,770.27 1407.34,898.59 1333.21,770.27 		"/>
		<polygon class="st8" points="1481.47,770.27 1629.51,770.27 1629.74,770.27 1555.6,898.59 		"/>
		<polygon class="st9" points="1629.74,770.27 1777.78,770.27 1778,770.27 1703.87,898.59 		"/>
		<polygon class="st8" points="1778,770.27 1926.04,770.27 1926.26,770.27 1852.13,898.59 		"/>
		<polygon class="st8" points="1926.26,770.27 1926.26,898.59 1852.13,898.59 		"/>
		<polygon style="clip-path:url(#SVGID_2_);fill:#FF677D;" points="1778,770.27 1852.13,898.59 1851.91,898.59 1703.87,898.59 		"/>
		<polygon style="clip-path:url(#SVGID_2_);fill:#FF677D;" points="1629.74,770.27 1703.87,898.59 1703.64,898.59 1555.6,898.59 		
			"/>
		<polygon class="st8" points="1555.6,898.59 1555.38,898.59 1407.34,898.59 1481.47,770.27 		"/>
		<polygon class="st9" points="1407.34,898.59 1407.12,898.59 1259.08,898.59 1333.21,770.27 		"/>
		<polygon class="st8" points="1259.08,898.59 1258.85,898.59 1110.81,898.59 1184.94,770.27 		"/>
		<polygon style="clip-path:url(#SVGID_2_);fill:#FF677D;" points="1110.81,898.59 1110.59,898.59 962.55,898.59 1036.68,770.27 		
			"/>
		<polygon style="clip-path:url(#SVGID_2_);fill:#FF677D;" points="962.55,898.59 962.32,898.59 814.28,898.59 888.41,770.27 		"/>
		<polygon class="st8" points="814.28,898.59 814.06,898.59 666.02,898.59 740.15,770.27 		"/>
		<polygon style="clip-path:url(#SVGID_2_);fill:#FF677D;" points="666.02,898.59 665.79,898.59 591.66,898.59 591.66,770.65 
			591.89,770.27 		"/>
		<polygon class="st8" points="591.66,770.27 591.66,641.94 665.79,641.94 		"/>
		<polygon style="clip-path:url(#SVGID_2_);fill:#FF677D;" points="739.93,770.27 665.79,641.94 666.02,641.94 814.06,641.94 		"/>
		<g class="st10">
			<polygon class="st5" points="888.19,770.27 814.06,641.94 814.28,641.94 962.32,641.94 			"/>
		</g>
		<g class="st10">
			<polygon class="st5" points="1036.45,770.27 962.32,641.94 962.55,641.94 1110.59,641.94 			"/>
		</g>
		<polygon style="clip-path:url(#SVGID_2_);fill:#FF677D;" points="1184.72,770.27 1110.59,641.94 1110.81,641.94 1258.85,641.94 		
			"/>
		<polygon class="st8" points="1259.08,641.94 1407.12,641.94 1332.98,770.27 1258.85,641.94 		"/>
		<polygon class="st9" points="1407.12,641.94 1407.34,641.94 1555.38,641.94 1481.25,770.27 		"/>
		<polygon class="st8" points="1555.38,641.94 1555.6,641.94 1703.64,641.94 1629.51,770.27 		"/>
		<polygon class="st8" points="1703.64,641.94 1703.87,641.94 1851.91,641.94 1777.78,770.27 		"/>
		<polygon class="st9" points="1851.91,641.94 1852.13,641.94 1926.26,641.94 1926.26,769.88 1926.04,770.27 		"/>
		<polygon class="st8" points="1851.91,641.94 1926.04,770.27 1778,770.27 1777.78,770.27 		"/>
		<polygon style="clip-path:url(#SVGID_2_);fill:#FF677D;" points="1703.64,641.94 1777.78,770.27 1629.74,770.27 1629.51,770.27 		
			"/>
		<polygon class="st8" points="1555.38,641.94 1629.51,770.27 1481.47,770.27 1481.25,770.27 		"/>
		<polygon class="st9" points="1481.25,770.27 1333.21,770.27 1332.98,770.27 1407.12,641.94 		"/>
		<polygon class="st8" points="1332.98,770.27 1184.94,770.27 1184.72,770.27 1258.85,641.94 		"/>
		<polygon style="clip-path:url(#SVGID_2_);fill:#FF677D;" points="1184.72,770.27 1036.68,770.27 1036.45,770.27 1110.59,641.94 		
			"/>
		<g class="st10">
			<polygon class="st5" points="1036.45,770.27 888.41,770.27 888.19,770.27 962.32,641.94 			"/>
		</g>
		<polygon style="clip-path:url(#SVGID_2_);fill:#FF677D;" points="888.19,770.27 740.15,770.27 739.93,770.27 814.06,641.94 		"/>
		<polygon class="st8" points="739.93,770.27 591.89,770.27 591.66,770.27 665.79,641.94 		"/>
		<polygon class="st9" points="591.66,514 591.66,513.62 591.89,513.62 		"/>
		<polygon style="clip-path:url(#SVGID_2_);fill:#FF677D;" points="666.02,641.94 591.89,513.62 739.93,513.62 740.15,513.62 		"/>
		<g class="st10">
			<polygon class="st5" points="814.28,641.94 740.15,513.62 888.19,513.62 888.41,513.62 			"/>
		</g>
		<polygon class="st8" points="962.55,641.94 888.41,513.62 1036.45,513.62 1036.68,513.62 		"/>
		<g class="st10">
			<polygon class="st5" points="1110.81,641.94 1036.68,513.62 1184.72,513.62 1184.94,513.62 			"/>
		</g>
		<polygon style="clip-path:url(#SVGID_2_);fill:#FF677D;" points="1184.94,513.62 1332.98,513.62 1333.21,513.62 1259.08,641.94 		
			"/>
		<polygon class="st8" points="1333.21,513.62 1481.25,513.62 1481.47,513.62 1407.34,641.94 		"/>
		<polygon class="st9" points="1481.47,513.62 1629.51,513.62 1629.74,513.62 1555.6,641.94 		"/>
		<polygon class="st8" points="1629.74,513.62 1777.78,513.62 1778,513.62 1703.87,641.94 		"/>
		<polygon class="st9" points="1778,513.62 1926.04,513.62 1926.26,513.62 1852.13,641.94 		"/>
		<polygon class="st9" points="1926.26,513.62 1926.26,641.94 1852.13,641.94 		"/>
		<polygon class="st8" points="1778,513.62 1852.13,641.94 1851.91,641.94 1703.87,641.94 		"/>
		<polygon class="st8" points="1629.74,513.62 1703.87,641.94 1703.64,641.94 1555.6,641.94 		"/>
		<polygon class="st9" points="1481.47,513.62 1555.6,641.94 1555.38,641.94 1407.34,641.94 		"/>
		<polygon class="st8" points="1333.21,513.62 1407.34,641.94 1407.12,641.94 1259.08,641.94 		"/>
		<polygon style="clip-path:url(#SVGID_2_);fill:#FF677D;" points="1259.08,641.94 1258.85,641.94 1110.81,641.94 1184.94,513.62 		
			"/>
		<g class="st10">
			<polygon class="st5" points="1110.81,641.94 1110.59,641.94 962.55,641.94 1036.68,513.62 			"/>
		</g>
		<g class="st10">
			<polygon class="st5" points="962.55,641.94 962.32,641.94 814.28,641.94 888.41,513.62 			"/>
		</g>
		<polygon style="clip-path:url(#SVGID_2_);fill:#FF677D;" points="814.28,641.94 814.06,641.94 666.02,641.94 740.15,513.62 		"/>
		<polygon class="st8" points="666.02,641.94 665.79,641.94 591.66,641.94 591.66,514 591.89,513.62 		"/>
		<polygon style="clip-path:url(#SVGID_2_);fill:#FF677D;" points="591.66,513.62 591.66,385.29 665.79,385.29 		"/>
		<g class="st10">
			<polygon class="st5" points="739.93,513.62 665.79,385.29 666.02,385.29 814.06,385.29 			"/>
		</g>
		<polygon class="st8" points="888.19,513.62 814.06,385.29 814.28,385.29 962.32,385.29 		"/>
		<polygon class="st8" points="1036.45,513.62 962.32,385.29 962.55,385.29 1110.59,385.29 		"/>
		<g class="st10">
			<polygon class="st5" points="1110.59,385.29 1110.81,385.29 1258.85,385.29 1184.72,513.62 			"/>
		</g>
		<polygon style="clip-path:url(#SVGID_2_);fill:#FF677D;" points="1258.85,385.29 1259.08,385.29 1407.12,385.29 1332.98,513.62 		
			"/>
		<polygon class="st8" points="1407.12,385.29 1407.34,385.29 1555.38,385.29 1481.25,513.62 		"/>
		<polygon class="st9" points="1555.38,385.29 1555.6,385.29 1703.64,385.29 1629.51,513.62 		"/>
		<polygon class="st9" points="1703.64,385.29 1703.87,385.29 1851.91,385.29 1777.78,513.62 		"/>
		<g class="st10">
			<polygon class="st5" points="1851.91,385.29 1852.13,385.29 1926.26,385.29 1926.26,513.23 1926.04,513.62 			"/>
		</g>
		<polygon class="st9" points="1851.91,385.29 1926.04,513.62 1778,513.62 1777.78,513.62 		"/>
		<polygon class="st8" points="1703.64,385.29 1777.78,513.62 1629.74,513.62 1629.51,513.62 		"/>
		<polygon class="st9" points="1555.38,385.29 1629.51,513.62 1481.47,513.62 1481.25,513.62 		"/>
		<polygon class="st8" points="1333.21,513.62 1332.98,513.62 1407.12,385.29 1481.25,513.62 		"/>
		<polygon style="clip-path:url(#SVGID_2_);fill:#FF677D;" points="1184.94,513.62 1184.72,513.62 1258.85,385.29 1332.98,513.62 		
			"/>
		<g class="st10">
			<polygon class="st5" points="1184.72,513.62 1036.68,513.62 1036.45,513.62 1110.59,385.29 			"/>
		</g>
		<polygon class="st8" points="1036.45,513.62 888.41,513.62 888.19,513.62 962.32,385.29 		"/>
		<g class="st10">
			<polygon class="st5" points="888.19,513.62 740.15,513.62 739.93,513.62 814.06,385.29 			"/>
		</g>
		<polygon style="clip-path:url(#SVGID_2_);fill:#FF677D;" points="739.93,513.62 591.89,513.62 591.66,513.62 665.79,385.29 		"/>
		<polygon class="st9" points="591.66,257.35 591.66,256.97 591.89,256.97 		"/>
		<g class="st10">
			<polygon class="st5" points="666.02,385.29 591.89,256.97 739.93,256.97 740.15,256.97 			"/>
		</g>
		<polygon class="st8" points="814.28,385.29 740.15,256.97 888.19,256.97 888.41,256.97 		"/>
		<polygon class="st8" points="888.41,256.97 1036.45,256.97 1036.68,256.97 962.55,385.29 		"/>
		<polygon class="st8" points="1036.68,256.97 1184.72,256.97 1184.94,256.97 1110.81,385.29 		"/>
		<g class="st10">
			<polygon class="st5" points="1184.94,256.97 1332.98,256.97 1333.21,256.97 1259.08,385.29 			"/>
		</g>
		<polygon style="clip-path:url(#SVGID_2_);fill:#FF677D;" points="1333.21,256.97 1481.25,256.97 1481.47,256.97 1407.34,385.29 		
			"/>
		<polygon class="st8" points="1481.47,256.97 1629.51,256.97 1629.74,256.97 1555.6,385.29 		"/>
		<polygon class="st9" points="1629.74,256.97 1777.78,256.97 1778,256.97 1703.87,385.29 		"/>
		<g class="st10">
			<polygon class="st5" points="1778,256.97 1926.04,256.97 1926.26,256.97 1852.13,385.29 			"/>
		</g>
		<g class="st10">
			<polygon class="st5" points="1926.26,256.97 1926.26,385.29 1852.13,385.29 			"/>
		</g>
		<polygon class="st9" points="1778,256.97 1852.13,385.29 1851.91,385.29 1703.87,385.29 		"/>
		<polygon class="st9" points="1629.74,256.97 1703.87,385.29 1703.64,385.29 1555.6,385.29 		"/>
		<polygon class="st8" points="1555.38,385.29 1407.34,385.29 1481.47,256.97 1555.6,385.29 		"/>
		<polygon style="clip-path:url(#SVGID_2_);fill:#FF677D;" points="1407.12,385.29 1259.08,385.29 1333.21,256.97 1407.34,385.29 		
			"/>
		<g class="st10">
			<polygon class="st5" points="1258.85,385.29 1110.81,385.29 1184.94,256.97 1259.08,385.29 			"/>
		</g>
		<polygon class="st8" points="1110.59,385.29 962.55,385.29 1036.68,256.97 1110.81,385.29 		"/>
		<polygon class="st8" points="962.55,385.29 962.32,385.29 814.28,385.29 888.41,256.97 		"/>
		<g class="st10">
			<polygon class="st5" points="814.28,385.29 814.06,385.29 666.02,385.29 740.15,256.97 			"/>
		</g>
		<polygon style="clip-path:url(#SVGID_2_);fill:#FF677D;" points="666.02,385.29 665.79,385.29 591.66,385.29 591.66,257.35 
			591.89,256.97 		"/>
		<g class="st10">
			<polygon class="st5" points="591.66,256.97 591.66,128.64 665.79,128.64 			"/>
		</g>
		<polygon class="st8" points="739.93,256.97 665.79,128.64 666.02,128.64 814.06,128.64 		"/>
		<polygon style="clip-path:url(#SVGID_2_);fill:#FF677D;" points="814.06,128.64 814.28,128.64 962.32,128.64 888.19,256.97 		"/>
		<polygon class="st8" points="962.32,128.64 962.55,128.64 1110.59,128.64 1036.45,256.97 		"/>
		<polygon class="st8" points="1110.59,128.64 1110.81,128.64 1258.85,128.64 1184.72,256.97 		"/>
		<g class="st10">
			<polygon class="st5" points="1258.85,128.64 1259.08,128.64 1407.12,128.64 1332.98,256.97 			"/>
		</g>
		<polygon style="clip-path:url(#SVGID_2_);fill:#FF677D;" points="1407.12,128.64 1407.34,128.64 1555.38,128.64 1481.25,256.97 		
			"/>
		<polygon class="st8" points="1555.38,128.64 1555.6,128.64 1703.64,128.64 1629.51,256.97 		"/>
		<polygon style="clip-path:url(#SVGID_2_);fill:#FF677D;" points="1703.64,128.64 1703.87,128.64 1851.91,128.64 1777.78,256.97 		
			"/>
		<g class="st10">
			<polygon class="st5" points="1851.91,128.64 1852.13,128.64 1926.26,128.64 1926.26,256.58 1926.04,256.97 			"/>
		</g>
		<g class="st10">
			<polygon class="st5" points="1851.91,128.64 1926.04,256.97 1778,256.97 1777.78,256.97 			"/>
		</g>
		<polygon class="st9" points="1629.74,256.97 1629.51,256.97 1703.64,128.64 1777.78,256.97 		"/>
		<polygon class="st8" points="1481.47,256.97 1481.25,256.97 1555.38,128.64 1629.51,256.97 		"/>
		<polygon style="clip-path:url(#SVGID_2_);fill:#FF677D;" points="1333.21,256.97 1332.98,256.97 1407.12,128.64 1481.25,256.97 		
			"/>
		<g class="st10">
			<polygon class="st5" points="1184.94,256.97 1184.72,256.97 1258.85,128.64 1332.98,256.97 			"/>
		</g>
		<polygon class="st8" points="1036.68,256.97 1036.45,256.97 1110.59,128.64 1184.72,256.97 		"/>
		<polygon class="st8" points="888.41,256.97 888.19,256.97 962.32,128.64 1036.45,256.97 		"/>
		<polygon class="st8" points="888.19,256.97 740.15,256.97 739.93,256.97 814.06,128.64 		"/>
		<g class="st10">
			<polygon class="st5" points="739.93,256.97 591.89,256.97 591.66,256.97 665.79,128.64 			"/>
		</g>
		<polygon class="st8" points="592.11,0.7 739.93,0.7 666.02,128.64 		"/>
		<polygon style="clip-path:url(#SVGID_2_);fill:#FF677D;" points="740.37,0.7 888.19,0.7 814.28,128.64 		"/>
		<polygon class="st8" points="888.64,0.7 1036.45,0.7 962.55,128.64 		"/>
		<polygon class="st9" points="1036.9,0.7 1184.72,0.7 1110.81,128.64 		"/>
		<polygon class="st8" points="1185.17,0.7 1332.98,0.7 1259.08,128.64 		"/>
		<g class="st10">
			<polygon class="st5" points="1333.43,0.7 1481.25,0.7 1407.34,128.64 			"/>
		</g>
		<polygon style="clip-path:url(#SVGID_2_);fill:#FF677D;" points="1481.69,0.7 1629.51,0.7 1555.6,128.64 		"/>
		<polygon class="st8" points="1629.96,0.7 1777.78,0.7 1703.87,128.64 		"/>
		<polygon class="st8" points="1778.22,0.7 1926.04,0.7 1852.13,128.64 		"/>
		<polygon class="st9" points="1926.04,0.7 1926.26,0.7 1926.26,128.64 1852.13,128.64 		"/>
		<polygon class="st9" points="1851.91,128.64 1703.87,128.64 1777.78,0.7 1778.22,0.7 1852.13,128.64 		"/>
		<polygon class="st8" points="1703.64,128.64 1555.6,128.64 1629.51,0.7 1629.96,0.7 1703.87,128.64 		"/>
		<polygon style="clip-path:url(#SVGID_2_);fill:#FF677D;" points="1555.38,128.64 1407.34,128.64 1481.25,0.7 1481.69,0.7 
			1555.6,128.64 		"/>
		<g class="st10">
			<polygon class="st5" points="1407.12,128.64 1259.08,128.64 1332.98,0.7 1333.43,0.7 1407.34,128.64 			"/>
		</g>
		<polygon class="st8" points="1258.85,128.64 1110.81,128.64 1184.72,0.7 1185.17,0.7 1259.08,128.64 		"/>
		<polygon class="st8" points="1110.59,128.64 962.55,128.64 1036.45,0.7 1036.9,0.7 1110.81,128.64 		"/>
		<polygon style="clip-path:url(#SVGID_2_);fill:#FF677D;" points="962.32,128.64 814.28,128.64 888.19,0.7 888.64,0.7 
			962.55,128.64 		"/>
		<polygon class="st8" points="814.06,128.64 666.02,128.64 739.93,0.7 740.37,0.7 814.28,128.64 		"/>
		<g class="st10">
			<polygon class="st5" points="666.02,128.64 665.79,128.64 591.66,128.64 591.66,0.7 592.11,0.7 			"/>
		</g>
		<polygon class="st8" points="146.87,1026.92 147.09,1026.92 72.96,1155.24 -1.17,1026.92 		"/>
		<polygon style="clip-path:url(#SVGID_2_);fill:#FF677D;" points="295.13,1026.92 295.36,1026.92 221.23,1155.24 147.09,1026.92 		
			"/>
		<polygon style="clip-path:url(#SVGID_2_);fill:#FF677D;" points="443.4,1026.92 443.62,1026.92 369.49,1155.24 295.36,1026.92 		
			"/>
		<polygon style="clip-path:url(#SVGID_2_);fill:#FF677D;" points="443.62,1026.92 591.66,1026.92 591.89,1026.92 517.75,1155.24 		
			"/>
		<polygon class="st8" points="591.89,1026.92 591.89,1155.24 517.75,1155.24 		"/>
		<polygon style="clip-path:url(#SVGID_2_);fill:#FF677D;" points="517.75,1155.24 517.53,1155.24 369.49,1155.24 443.62,1026.92 		
			"/>
		<polygon class="st8" points="369.49,1155.24 369.27,1155.24 221.23,1155.24 295.36,1026.92 		"/>
		<polygon style="clip-path:url(#SVGID_2_);fill:#FF677D;" points="221.23,1155.24 221,1155.24 72.96,1155.24 147.09,1026.92 		"/>
		<polygon class="st9" points="72.96,1155.24 72.74,1155.24 -75.3,1155.24 -1.17,1026.92 		"/>
		<polygon style="clip-path:url(#SVGID_2_);fill:#FF677D;" points="-75.3,898.59 72.74,898.59 -1.39,1026.92 -75.53,898.59 		"/>
		<polygon class="st8" points="72.96,898.59 221,898.59 146.87,1026.92 72.74,898.59 		"/>
		<polygon style="clip-path:url(#SVGID_2_);fill:#FF677D;" points="221.23,898.59 369.27,898.59 295.13,1026.92 221,898.59 		"/>
		<polygon class="st8" points="369.27,898.59 369.49,898.59 517.53,898.59 443.4,1026.92 		"/>
		<polygon style="clip-path:url(#SVGID_2_);fill:#FF677D;" points="517.53,898.59 517.75,898.59 591.89,898.59 591.89,1026.53 
			591.66,1026.92 		"/>
		<polygon class="st9" points="591.89,1026.53 591.89,1026.92 591.66,1026.92 		"/>
		<polygon style="clip-path:url(#SVGID_2_);fill:#FF677D;" points="517.53,898.59 591.66,1026.92 443.62,1026.92 443.4,1026.92 		
			"/>
		<polygon class="st8" points="443.4,1026.92 295.36,1026.92 295.13,1026.92 369.27,898.59 		"/>
		<polygon style="clip-path:url(#SVGID_2_);fill:#FF677D;" points="295.13,1026.92 147.09,1026.92 146.87,1026.92 221,898.59 		"/>
		<polygon class="st8" points="146.87,1026.92 -1.17,1026.92 -1.39,1026.92 72.74,898.59 		"/>
		<polygon style="clip-path:url(#SVGID_2_);fill:#FF677D;" points="146.87,770.27 147.09,770.27 72.96,898.59 -1.17,770.27 		"/>
		<polygon class="st8" points="147.09,770.27 295.13,770.27 295.36,770.27 221.23,898.59 		"/>
		<polygon style="clip-path:url(#SVGID_2_);fill:#FF677D;" points="295.36,770.27 443.4,770.27 443.62,770.27 369.49,898.59 		"/>
		<polygon style="clip-path:url(#SVGID_2_);fill:#FF677D;" points="443.62,770.27 591.66,770.27 591.89,770.27 517.75,898.59 		"/>
		<polygon style="clip-path:url(#SVGID_2_);fill:#FF677D;" points="591.89,770.27 591.89,898.59 517.75,898.59 		"/>
		<polygon class="st8" points="443.62,770.27 517.75,898.59 517.53,898.59 369.49,898.59 		"/>
		<polygon style="clip-path:url(#SVGID_2_);fill:#FF677D;" points="295.36,770.27 369.49,898.59 369.27,898.59 221.23,898.59 		"/>
		<polygon class="st8" points="221.23,898.59 221,898.59 72.96,898.59 147.09,770.27 		"/>
		<polygon style="clip-path:url(#SVGID_2_);fill:#FF677D;" points="72.96,898.59 72.74,898.59 -75.3,898.59 -1.17,770.27 		"/>
		<polygon class="st9" points="-75.3,641.94 72.74,641.94 -1.39,770.27 -75.53,641.94 		"/>
		<polygon style="clip-path:url(#SVGID_2_);fill:#FF677D;" points="72.74,641.94 72.96,641.94 221,641.94 146.87,770.27 		"/>
		<polygon class="st8" points="221,641.94 221.23,641.94 369.27,641.94 295.13,770.27 		"/>
		<polygon style="clip-path:url(#SVGID_2_);fill:#FF677D;" points="369.27,641.94 369.49,641.94 517.53,641.94 443.4,770.27 		"/>
		<polygon class="st8" points="517.53,641.94 517.75,641.94 591.89,641.94 591.89,769.88 591.66,770.27 		"/>
		<polygon class="st9" points="591.89,769.88 591.89,770.27 591.66,770.27 		"/>
		<polygon style="clip-path:url(#SVGID_2_);fill:#FF677D;" points="517.53,641.94 591.66,770.27 443.62,770.27 443.4,770.27 		"/>
		<polygon style="clip-path:url(#SVGID_2_);fill:#FF677D;" points="369.27,641.94 443.4,770.27 295.36,770.27 295.13,770.27 		"/>
		<polygon class="st8" points="221,641.94 295.13,770.27 147.09,770.27 146.87,770.27 		"/>
		<polygon style="clip-path:url(#SVGID_2_);fill:#FF677D;" points="146.87,770.27 -1.17,770.27 -1.39,770.27 72.74,641.94 		"/>
		<polygon class="st9" points="-1.17,513.62 146.87,513.62 147.09,513.62 72.96,641.94 		"/>
		<polygon class="st9" points="147.09,513.62 295.13,513.62 295.36,513.62 221.23,641.94 		"/>
		<polygon class="st8" points="295.36,513.62 443.4,513.62 443.62,513.62 369.49,641.94 		"/>
		<polygon class="st8" points="443.62,513.62 591.66,513.62 591.89,513.62 517.75,641.94 		"/>
		<polygon class="st8" points="591.89,513.62 591.89,641.94 517.75,641.94 		"/>
		<g class="st10">
			<polygon class="st5" points="443.62,513.62 517.75,641.94 517.53,641.94 369.49,641.94 			"/>
		</g>
		<polygon class="st8" points="295.36,513.62 369.49,641.94 369.27,641.94 221.23,641.94 		"/>
		<polygon style="clip-path:url(#SVGID_2_);fill:#FF677D;" points="147.09,513.62 221.23,641.94 221,641.94 72.96,641.94 		"/>
		<polygon class="st9" points="-1.17,513.62 72.96,641.94 72.74,641.94 -75.3,641.94 		"/>
		<polygon class="st9" points="-75.53,385.29 -75.3,385.29 72.74,385.29 -1.39,513.62 		"/>
		<polygon class="st8" points="72.74,385.29 72.96,385.29 221,385.29 146.87,513.62 		"/>
		<polygon style="clip-path:url(#SVGID_2_);fill:#FF677D;" points="221,385.29 221.23,385.29 369.27,385.29 295.13,513.62 		"/>
		<polygon style="clip-path:url(#SVGID_2_);fill:#FF677D;" points="369.27,385.29 369.49,385.29 517.53,385.29 443.4,513.62 		"/>
		<polygon style="clip-path:url(#SVGID_2_);fill:#FF677D;" points="517.53,385.29 517.75,385.29 591.89,385.29 591.89,513.23 
			591.66,513.62 		"/>
		<polygon class="st9" points="591.89,513.23 591.89,513.62 591.66,513.62 		"/>
		<polygon class="st8" points="517.53,385.29 591.66,513.62 443.62,513.62 443.4,513.62 		"/>
		<polygon class="st8" points="369.27,385.29 443.4,513.62 295.36,513.62 295.13,513.62 		"/>
		<polygon class="st8" points="221,385.29 295.13,513.62 147.09,513.62 146.87,513.62 		"/>
		<polygon class="st9" points="-1.17,513.62 -1.39,513.62 72.74,385.29 146.87,513.62 		"/>
		<polygon class="st8" points="-1.17,256.97 146.87,256.97 147.09,256.97 72.96,385.29 		"/>
		<polygon class="st9" points="147.09,256.97 295.13,256.97 295.36,256.97 221.23,385.29 		"/>
		<polygon style="clip-path:url(#SVGID_2_);fill:#FF677D;" points="295.36,256.97 443.4,256.97 443.62,256.97 369.49,385.29 		"/>
		<polygon style="clip-path:url(#SVGID_2_);fill:#FF677D;" points="443.62,256.97 591.66,256.97 591.89,256.97 517.75,385.29 		"/>
		<polygon style="clip-path:url(#SVGID_2_);fill:#FF677D;" points="591.89,256.97 591.89,385.29 517.75,385.29 		"/>
		<polygon class="st8" points="443.62,256.97 517.75,385.29 517.53,385.29 369.49,385.29 		"/>
		<polygon style="clip-path:url(#SVGID_2_);fill:#FF677D;" points="295.36,256.97 369.49,385.29 369.27,385.29 221.23,385.29 		"/>
		<polygon class="st8" points="221,385.29 72.96,385.29 147.09,256.97 221.23,385.29 		"/>
		<polygon class="st9" points="72.74,385.29 -75.3,385.29 -1.17,256.97 72.96,385.29 		"/>
		<polygon class="st9" points="-75.53,128.64 -75.3,128.64 72.74,128.64 -1.39,256.97 		"/>
		<polygon class="st8" points="72.74,128.64 72.96,128.64 221,128.64 146.87,256.97 		"/>
		<polygon class="st9" points="221,128.64 221.23,128.64 369.27,128.64 295.13,256.97 		"/>
		<polygon style="clip-path:url(#SVGID_2_);fill:#FF677D;" points="369.27,128.64 369.49,128.64 517.53,128.64 443.4,256.97 		"/>
		<g class="st10">
			<polygon class="st5" points="517.53,128.64 517.75,128.64 591.89,128.64 591.89,256.58 591.66,256.97 			"/>
		</g>
		<polygon class="st9" points="591.89,256.58 591.89,256.97 591.66,256.97 		"/>
		<polygon style="clip-path:url(#SVGID_2_);fill:#FF677D;" points="517.53,128.64 591.66,256.97 443.62,256.97 443.4,256.97 		"/>
		<polygon style="clip-path:url(#SVGID_2_);fill:#FF677D;" points="295.36,256.97 295.13,256.97 369.27,128.64 443.4,256.97 		"/>
		<polygon class="st9" points="147.09,256.97 146.87,256.97 221,128.64 295.13,256.97 		"/>
		<polygon class="st8" points="-1.17,256.97 -1.39,256.97 72.74,128.64 146.87,256.97 		"/>
		<polygon class="st9" points="-0.95,0.7 146.87,0.7 72.96,128.64 		"/>
		<polygon class="st8" points="147.32,0.7 295.13,0.7 221.23,128.64 		"/>
		<polygon class="st9" points="295.58,0.7 443.4,0.7 369.49,128.64 		"/>
		<g class="st10">
			<polygon class="st5" points="443.84,0.7 591.66,0.7 517.75,128.64 			"/>
		</g>
		<g class="st10">
			<polygon class="st5" points="591.66,0.7 591.89,0.7 591.89,128.64 517.75,128.64 			"/>
		</g>
		<polygon style="clip-path:url(#SVGID_2_);fill:#FF677D;" points="517.53,128.64 369.49,128.64 443.4,0.7 443.84,0.7 
			517.75,128.64 		"/>
		<polygon class="st9" points="369.27,128.64 221.23,128.64 295.13,0.7 295.58,0.7 369.49,128.64 		"/>
		<polygon class="st8" points="221,128.64 72.96,128.64 146.87,0.7 147.32,0.7 221.23,128.64 		"/>
		<polygon class="st9" points="72.74,128.64 -75.3,128.64 -1.39,0.7 -0.95,0.7 72.96,128.64 		"/>
	</g>
</g>
</svg>
