<?xml version="1.0" encoding="utf-8"?>
<!-- Generator: Adobe Illustrator 23.0.3, SVG Export Plug-In . SVG Version: 6.00 Build 0)  -->
<svg version="1.1" id="Layer_1" xmlns="http://www.w3.org/2000/svg" xmlns:xlink="http://www.w3.org/1999/xlink" x="0px" y="0px"
	 viewBox="0 0 1920 36" style="enable-background:new 0 0 1920 36;" xml:space="preserve">
<style type="text/css">
	.st0{clip-path:url(#SVGID_2_);}
	.st1{fill:#FF8F51;}
	.st2{fill:#C13553;}
	.st3{fill:#4C335A;}
	.st4{fill:#45D4D1;}
</style>
<g>
	<defs>
		<rect id="SVGID_1_" x="0.17" y="-0.37" width="1919.83" height="36.89"/>
	</defs>
	<clipPath id="SVGID_2_">
		<use xlink:href="#SVGID_1_"  style="overflow:visible;"/>
	</clipPath>
	<g class="st0">
		<g>
			<g>
				<polygon class="st1" points="1846.37,-90.93 1772.53,-218.76 1772.3,-218.76 1698.46,-346.59 1624.61,-218.76 1624.83,-218.76 
					1550.98,-90.93 1550.76,-90.93 1477.13,36.52 1624.38,36.52 1624.83,36.52 1698.46,-90.93 1772.08,36.52 1772.53,36.52 
					1919.78,36.52 1846.15,-90.93 				"/>
			</g>
			<g>
				<polygon class="st1" points="1846.37,-857.93 1920.22,-985.76 1920,-985.76 1846.15,-1113.59 1772.3,-985.76 1772.53,-985.76 
									"/>
			</g>
			<g>
				<polygon class="st1" points="1329.21,-1241.04 1255.59,-1113.59 1255.37,-1113.59 1181.52,-985.76 1181.74,-985.76 
					1107.89,-857.93 1107.67,-857.93 1033.82,-730.09 1034.04,-730.09 960.2,-602.26 886.35,-730.09 886.13,-730.09 812.28,-857.93 
					812.5,-857.93 738.65,-985.76 738.43,-985.76 664.58,-1113.59 664.8,-1113.59 591.18,-1241.04 590.96,-1241.04 590.73,-1241.04 
					443.48,-1241.04 517.11,-1113.59 516.88,-1113.59 590.73,-985.76 590.96,-985.76 664.8,-857.93 664.58,-857.93 738.43,-730.09 
					738.65,-730.09 812.5,-602.26 812.28,-602.26 886.13,-474.43 886.35,-474.43 1033.82,-474.43 1107.67,-602.26 1107.89,-602.26 
					1181.74,-730.09 1181.52,-730.09 1255.37,-857.93 1255.59,-857.93 1329.44,-985.76 1329.21,-985.76 1403.06,-1113.59 
					1403.29,-1113.59 1476.91,-1241.04 1329.66,-1241.04 				"/>
			</g>
			<g>
				<polygon class="st1" points="369.41,-602.26 516.88,-602.26 517.11,-602.26 443.26,-730.09 				"/>
			</g>
		</g>
		<g>
			<polygon class="st2" points="1181.52,-218.76 1255.37,-346.59 1255.59,-346.59 1329.44,-474.43 1329.21,-474.43 1403.06,-602.26 
				1403.29,-602.26 1477.13,-730.09 1476.91,-730.09 1550.76,-857.93 1550.98,-857.93 1624.83,-985.76 1624.61,-985.76 
				1698.46,-1113.59 1698.68,-1113.59 1772.3,-1241.04 1625.05,-1241.04 1624.61,-1241.04 1550.98,-1113.59 1550.76,-1113.59 
				1476.91,-985.76 1477.13,-985.76 1403.29,-857.93 1403.06,-857.93 1329.21,-730.09 1329.44,-730.09 1255.59,-602.26 
				1255.37,-602.26 1181.52,-474.43 1181.74,-474.43 1107.89,-346.59 1107.67,-346.59 1033.82,-218.76 1034.04,-218.76 
				960.2,-90.93 886.35,-218.76 886.13,-218.76 812.28,-346.59 812.5,-346.59 738.65,-474.43 738.43,-474.43 664.58,-602.26 
				664.8,-602.26 590.96,-730.09 590.73,-730.09 516.88,-857.93 443.04,-730.09 369.19,-857.93 295.34,-730.09 295.56,-730.09 
				221.71,-602.26 221.49,-602.26 147.64,-474.43 147.87,-474.43 74.02,-346.59 73.8,-346.59 -0.05,-218.76 0.17,-218.76 
				74.02,-90.93 147.87,-218.76 147.64,-218.76 221.49,-346.59 221.71,-346.59 295.56,-474.43 295.34,-474.43 369.19,-602.26 
				369.41,-602.26 443.26,-730.09 517.11,-602.26 516.88,-602.26 590.73,-474.43 590.96,-474.43 664.8,-346.59 664.58,-346.59 
				738.43,-218.76 738.65,-218.76 812.5,-90.93 812.28,-90.93 885.9,36.52 886.35,36.52 1033.6,36.52 1034.04,36.52 1107.67,-90.93 
				1107.89,-90.93 1181.74,-218.76 			"/>
			<polygon class="st2" points="664.8,-90.93 590.96,-218.76 517.11,-90.93 516.88,-90.93 443.26,36.52 590.51,36.52 590.73,36.52 
				590.96,36.52 738.21,36.52 664.58,-90.93 			"/>
			<polygon class="st2" points="960.2,-346.59 1034.04,-474.43 1033.82,-474.43 886.35,-474.43 			"/>
			<polygon class="st2" points="1920,-474.43 1846.15,-602.26 1846.37,-602.26 1772.53,-730.09 1772.3,-730.09 1698.46,-857.93 
				1624.61,-730.09 1624.83,-730.09 1550.98,-602.26 1550.76,-602.26 1476.91,-474.43 1477.13,-474.43 1403.29,-346.59 
				1403.06,-346.59 1329.21,-218.76 1329.44,-218.76 1255.59,-90.93 1255.37,-90.93 1181.74,36.52 1328.99,36.52 1329.44,36.52 
				1403.06,-90.93 1403.29,-90.93 1477.13,-218.76 1476.91,-218.76 1550.76,-346.59 1550.98,-346.59 1624.83,-474.43 
				1624.61,-474.43 1698.46,-602.26 1772.3,-474.43 1772.53,-474.43 1846.37,-346.59 1920.22,-474.43 			"/>
			<polygon class="st2" points="664.58,-1113.59 738.43,-985.76 738.65,-985.76 812.5,-857.93 812.28,-857.93 886.13,-730.09 
				886.35,-730.09 960.2,-602.26 1034.04,-730.09 1033.82,-730.09 1107.67,-857.93 1107.89,-857.93 1181.74,-985.76 
				1181.52,-985.76 1255.37,-1113.59 1255.59,-1113.59 1329.21,-1241.04 1181.96,-1241.04 1181.52,-1241.04 1107.89,-1113.59 
				1034.27,-1241.04 1033.82,-1241.04 886.57,-1241.04 960.2,-1113.59 959.97,-1113.59 1033.82,-985.76 1034.04,-985.76 
				960.2,-857.93 886.35,-985.76 886.13,-985.76 812.28,-1113.59 812.5,-1113.59 738.87,-1241.04 738.43,-1241.04 591.18,-1241.04 
				664.8,-1113.59 			"/>
			<polygon class="st2" points="1920,-1241.04 1772.75,-1241.04 1846.37,-1113.59 			"/>
			<polygon class="st2" points="221.49,-90.93 147.87,36.52 295.12,36.52 295.56,36.52 369.19,-90.93 369.41,-90.93 295.56,-218.76 
				221.71,-90.93 			"/>
			<polygon class="st2" points="516.88,-346.59 517.11,-346.59 443.26,-474.43 369.41,-346.59 369.19,-346.59 295.34,-218.76 
				295.56,-218.76 443.04,-218.76 			"/>
			<polygon class="st2" points="443.26,-985.76 369.41,-857.93 516.88,-857.93 517.11,-857.93 			"/>
			<polygon class="st2" points="221.71,-857.93 147.87,-985.76 147.64,-985.76 221.49,-1113.59 221.71,-1113.59 295.34,-1241.04 
				148.09,-1241.04 147.64,-1241.04 74.02,-1113.59 73.8,-1113.59 -0.05,-985.76 0.17,-985.76 74.02,-857.93 73.8,-857.93 
				147.64,-730.09 147.87,-730.09 295.34,-730.09 221.49,-857.93 			"/>
		</g>
		<g>
			<polygon class="st3" points="738.65,36.52 885.9,36.52 812.28,-90.93 			"/>
			<polygon class="st3" points="960.2,-90.93 1034.04,-218.76 1033.82,-218.76 886.35,-218.76 			"/>
			<polygon class="st3" points="738.65,-218.76 738.43,-218.76 664.58,-346.59 664.8,-346.59 590.96,-474.43 590.73,-474.43 
				516.88,-602.26 369.41,-602.26 369.19,-602.26 295.34,-474.43 295.56,-474.43 221.71,-346.59 221.49,-346.59 147.64,-218.76 
				147.87,-218.76 74.02,-90.93 73.8,-90.93 0.17,36.52 147.42,36.52 147.87,36.52 221.49,-90.93 221.71,-90.93 295.56,-218.76 
				295.34,-218.76 369.19,-346.59 369.41,-346.59 443.26,-474.43 517.11,-346.59 516.88,-346.59 443.04,-218.76 295.56,-218.76 
				369.41,-90.93 369.19,-90.93 295.56,36.52 442.81,36.52 443.26,36.52 516.88,-90.93 517.11,-90.93 590.96,-218.76 664.8,-90.93 
				812.28,-90.93 812.5,-90.93 			"/>
			<polygon class="st3" points="1698.46,-602.26 1624.61,-474.43 1624.83,-474.43 1772.3,-474.43 			"/>
			<polygon class="st3" points="960.2,-857.93 1034.04,-985.76 1033.82,-985.76 886.35,-985.76 			"/>
			<polygon class="st3" points="812.28,-1113.59 886.13,-985.76 959.97,-1113.59 960.2,-1113.59 886.57,-1241.04 886.13,-1241.04 
				738.87,-1241.04 812.5,-1113.59 			"/>
			<polygon class="st3" points="1846.15,-1113.59 1698.68,-1113.59 1698.46,-1113.59 1772.3,-985.76 			"/>
			<polygon class="st3" points="1550.98,-1113.59 1624.61,-1241.04 1477.36,-1241.04 1476.91,-1241.04 1403.29,-1113.59 
				1403.06,-1113.59 1329.21,-985.76 1329.44,-985.76 1255.59,-857.93 1255.37,-857.93 1181.52,-730.09 1181.74,-730.09 
				1107.89,-602.26 1107.67,-602.26 1033.82,-474.43 1034.04,-474.43 960.2,-346.59 886.35,-474.43 886.13,-474.43 812.28,-602.26 
				812.5,-602.26 738.65,-730.09 738.43,-730.09 664.58,-857.93 664.8,-857.93 590.96,-985.76 590.73,-985.76 516.88,-1113.59 
				517.11,-1113.59 443.48,-1241.04 443.04,-1241.04 369.41,-1113.59 369.19,-1113.59 295.34,-985.76 295.56,-985.76 
				221.71,-857.93 221.49,-857.93 295.34,-730.09 369.19,-857.93 443.04,-730.09 516.88,-857.93 369.41,-857.93 443.26,-985.76 
				517.11,-857.93 516.88,-857.93 590.73,-730.09 590.96,-730.09 664.8,-602.26 664.58,-602.26 738.43,-474.43 738.65,-474.43 
				812.5,-346.59 812.28,-346.59 886.13,-218.76 959.97,-346.59 1033.82,-218.76 1107.67,-346.59 1107.89,-346.59 1181.74,-474.43 
				1181.52,-474.43 1255.37,-602.26 1255.59,-602.26 1329.44,-730.09 1329.21,-730.09 1403.06,-857.93 1403.29,-857.93 
				1477.13,-985.76 1476.91,-985.76 1550.76,-1113.59 			"/>
			<polygon class="st3" points="74.02,-346.59 147.87,-474.43 147.64,-474.43 221.49,-602.26 221.71,-602.26 147.87,-730.09 
				74.02,-602.26 73.8,-602.26 -0.05,-474.43 0.17,-474.43 -73.68,-346.59 -73.9,-346.59 -0.05,-218.76 73.8,-346.59 			"/>
			<polygon class="st3" points="1994.07,-346.59 1920.22,-474.43 1846.37,-346.59 1772.53,-474.43 1698.68,-346.59 1624.83,-474.43 
				1550.98,-346.59 1698.46,-346.59 1772.3,-218.76 1772.53,-218.76 1846.37,-90.93 1920.22,-218.76 1920,-218.76 1993.85,-346.59 
							"/>
		</g>
		<g>
			<polygon class="st4" points="664.58,-90.93 738.21,36.52 738.65,36.52 812.28,-90.93 664.8,-90.93 			"/>
			<polygon class="st4" points="1624.83,36.52 1772.08,36.52 1698.46,-90.93 			"/>
			<polygon class="st4" points="590.73,-218.37 590.96,-218.76 590.96,-219.15 590.73,-218.76 			"/>
			<polygon class="st4" points="1624.61,-218.76 1698.46,-346.59 1550.98,-346.59 1550.76,-346.59 1476.91,-218.76 1477.13,-218.76 
				1403.29,-90.93 1403.06,-90.93 1329.44,36.52 1476.69,36.52 1477.13,36.52 1550.76,-90.93 1550.98,-90.93 1624.83,-218.76 			"/>
			<polygon class="st4" points="1920,-218.76 1920.22,-218.76 1920.22,-219.15 			"/>
			<polygon class="st4" points="886.13,-218.76 886.35,-218.76 1033.82,-218.76 959.97,-346.59 			"/>
			<polygon class="st4" points="590.73,-474.04 590.96,-474.43 590.96,-474.81 590.73,-474.43 			"/>
			<polygon class="st4" points="1624.83,-474.43 1698.68,-346.59 1772.53,-474.43 1772.3,-474.43 			"/>
			<polygon class="st4" points="1920.22,-474.81 1920,-474.43 1920.22,-474.43 			"/>
			<polygon class="st4" points="590.73,-729.71 590.96,-730.09 590.96,-730.48 590.73,-730.09 			"/>
			<polygon class="st4" points="590.73,-985.37 590.96,-985.76 590.96,-986.15 590.73,-985.76 			"/>
			<polygon class="st4" points="1920,-985.76 1920.22,-985.76 1920.22,-986.15 			"/>
			<polygon class="st4" points="886.13,-985.76 886.35,-985.76 1033.82,-985.76 959.97,-1113.59 			"/>
			<polygon class="st4" points="1181.52,-1241.04 1034.27,-1241.04 1107.89,-1113.59 			"/>
			<polygon class="st4" points="-73.68,-90.93 -73.9,-90.93 -0.28,36.52 0.17,36.52 73.8,-90.93 74.02,-90.93 0.17,-218.76 			"/>
			<polygon class="st4" points="147.87,-730.09 221.71,-602.26 295.56,-730.09 295.34,-730.09 			"/>
			<polygon class="st4" points="73.8,-857.93 74.02,-857.93 0.17,-985.76 -73.68,-857.93 -73.9,-857.93 -0.05,-730.09 0.17,-730.09 
				-73.68,-602.26 -73.9,-602.26 -0.05,-474.43 73.8,-602.26 74.02,-602.26 147.87,-730.09 147.64,-730.09 			"/>
			<polygon class="st4" points="73.8,-1113.59 74.02,-1113.59 147.64,-1241.04 0.39,-1241.04 -0.05,-1241.04 -73.68,-1113.59 
				-73.9,-1113.59 -0.05,-985.76 			"/>
			<polygon class="st4" points="295.34,-1241.04 221.71,-1113.59 221.49,-1113.59 147.64,-985.76 147.87,-985.76 221.71,-857.93 
				295.56,-985.76 295.34,-985.76 369.19,-1113.59 369.41,-1113.59 443.04,-1241.04 295.79,-1241.04 			"/>
			<polygon class="st4" points="1846.37,-90.93 1846.15,-90.93 1919.78,36.52 1920.22,36.52 1993.85,-90.93 1994.07,-90.93 
				1920.22,-218.76 			"/>
			<polygon class="st4" points="1994.07,-857.93 1920.22,-985.76 1846.37,-857.93 1772.53,-985.76 1772.3,-985.76 1698.46,-1113.59 
				1624.61,-985.76 1624.83,-985.76 1550.98,-857.93 1550.76,-857.93 1476.91,-730.09 1477.13,-730.09 1403.29,-602.26 
				1403.06,-602.26 1329.21,-474.43 1329.44,-474.43 1255.59,-346.59 1255.37,-346.59 1181.52,-218.76 1181.74,-218.76 
				1107.89,-90.93 1107.67,-90.93 1034.04,36.52 1181.3,36.52 1181.74,36.52 1255.37,-90.93 1255.59,-90.93 1329.44,-218.76 
				1329.21,-218.76 1403.06,-346.59 1403.29,-346.59 1477.13,-474.43 1476.91,-474.43 1550.76,-602.26 1550.98,-602.26 
				1624.83,-730.09 1624.61,-730.09 1698.46,-857.93 1772.3,-730.09 1772.53,-730.09 1846.37,-602.26 1846.37,-602.26 
				1846.15,-602.26 1920,-474.43 1993.85,-602.26 1994.07,-602.26 1920.22,-730.09 1920.22,-730.48 1920,-730.09 1993.85,-857.93 
							"/>
			<polygon class="st4" points="1994.07,-1113.59 1920.45,-1241.04 1920,-1241.04 1846.37,-1113.59 1772.75,-1241.04 
				1772.3,-1241.04 1698.68,-1113.59 1846.15,-1113.59 1920,-985.76 1993.85,-1113.59 			"/>
		</g>
	</g>
</g>
</svg>
